<?xml version="1.0" encoding="utf-8" standalone="no"?>
<!DOCTYPE svg PUBLIC "-//W3C//DTD SVG 1.1//EN"
  "http://www.w3.org/Graphics/SVG/1.1/DTD/svg11.dtd">
<svg xmlns:xlink="http://www.w3.org/1999/xlink" width="460.8pt" height="345.6pt" viewBox="0 0 460.8 345.6" xmlns="http://www.w3.org/2000/svg" version="1.1">
 <metadata>
  <rdf:RDF xmlns:dc="http://purl.org/dc/elements/1.1/" xmlns:cc="http://creativecommons.org/ns#" xmlns:rdf="http://www.w3.org/1999/02/22-rdf-syntax-ns#">
   <cc:Work>
    <dc:type rdf:resource="http://purl.org/dc/dcmitype/StillImage"/>
    <dc:date>2023-08-21T07:11:52.594426</dc:date>
    <dc:format>image/svg+xml</dc:format>
    <dc:creator>
     <cc:Agent>
      <dc:title>Matplotlib v3.5.1, https://matplotlib.org/</dc:title>
     </cc:Agent>
    </dc:creator>
   </cc:Work>
  </rdf:RDF>
 </metadata>
 <defs>
  <style type="text/css">*{stroke-linejoin: round; stroke-linecap: butt}</style>
 </defs>
 <g id="figure_1">
  <g id="patch_1">
   <path d="M 0 345.6 
L 460.8 345.6 
L 460.8 0 
L 0 0 
z
" style="fill: #ffffff"/>
  </g>
  <g id="patch_2">
   <path d="M 57.6 245.952 
L 200.448 245.952 
L 200.448 103.104 
L 57.6 103.104 
z
" style="fill: #ffffff"/>
  </g>
  <g id="pane3d_1">
   <g id="patch_3">
    <path d="M 68.386009 210.730261 
L 115.559084 171.188854 
L 114.903333 114.163077 
L 65.472783 150.235241 
" style="fill: #f2f2f2; opacity: 0.5; stroke: #f2f2f2; stroke-linejoin: miter"/>
   </g>
  </g>
  <g id="pane3d_2">
   <g id="patch_4">
    <path d="M 115.559084 171.188854 
L 191.255038 193.19068 
L 193.956359 134.200715 
L 114.903333 114.163077 
" style="fill: #e6e6e6; opacity: 0.5; stroke: #e6e6e6; stroke-linejoin: miter"/>
   </g>
  </g>
  <g id="pane3d_3">
   <g id="patch_5">
    <path d="M 68.386009 210.730261 
L 148.627417 236.937105 
L 191.255038 193.19068 
L 115.559084 171.188854 
" style="fill: #ececec; opacity: 0.5; stroke: #ececec; stroke-linejoin: miter"/>
   </g>
  </g>
  <g id="axis3d_1">
   <g id="line2d_1">
    <path d="M 68.386009 210.730261 
L 148.627417 236.937105 
" style="fill: none; stroke: #000000; stroke-width: 0.8; stroke-linecap: square"/>
   </g>
   <g id="text_1">
    <!-- x -->
    <g transform="translate(88.080592 261.774233)scale(0.1 -0.1)">
     <defs>
      <path id="DejaVuSans-78" d="M 3513 3500 
L 2247 1797 
L 3578 0 
L 2900 0 
L 1881 1375 
L 863 0 
L 184 0 
L 1544 1831 
L 300 3500 
L 978 3500 
L 1906 2253 
L 2834 3500 
L 3513 3500 
z
" transform="scale(0.015625)"/>
     </defs>
     <use xlink:href="#DejaVuSans-78"/>
    </g>
   </g>
   <g id="Line3DCollection_1">
    <path d="M 83.079794 215.529251 
L 129.470568 175.232374 
L 129.406767 117.839275 
" style="fill: none; stroke: #b0b0b0; stroke-width: 0.8"/>
    <path d="M 118.217151 227.005112 
L 162.646043 184.875175 
L 164.039327 126.61762 
" style="fill: none; stroke: #b0b0b0; stroke-width: 0.8"/>
   </g>
   <g id="xtick_1">
    <g id="line2d_2">
     <path d="M 83.483979 215.17816 
L 82.269677 216.232951 
" style="fill: none; stroke: #000000; stroke-width: 0.8; stroke-linecap: square"/>
    </g>
    <g id="text_2">
     <!-- 0 -->
     <g transform="translate(72.363725 239.016409)scale(0.1 -0.1)">
      <defs>
       <path id="DejaVuSans-30" d="M 2034 4250 
Q 1547 4250 1301 3770 
Q 1056 3291 1056 2328 
Q 1056 1369 1301 889 
Q 1547 409 2034 409 
Q 2525 409 2770 889 
Q 3016 1369 3016 2328 
Q 3016 3291 2770 3770 
Q 2525 4250 2034 4250 
z
M 2034 4750 
Q 2819 4750 3233 4129 
Q 3647 3509 3647 2328 
Q 3647 1150 3233 529 
Q 2819 -91 2034 -91 
Q 1250 -91 836 529 
Q 422 1150 422 2328 
Q 422 3509 836 4129 
Q 1250 4750 2034 4750 
z
" transform="scale(0.015625)"/>
      </defs>
      <use xlink:href="#DejaVuSans-30"/>
     </g>
    </g>
   </g>
   <g id="xtick_2">
    <g id="line2d_3">
     <path d="M 118.604987 226.637345 
L 117.439767 227.742271 
" style="fill: none; stroke: #000000; stroke-width: 0.8; stroke-linecap: square"/>
    </g>
    <g id="text_3">
     <!-- 20 -->
     <g transform="translate(104.393185 250.950175)scale(0.1 -0.1)">
      <defs>
       <path id="DejaVuSans-32" d="M 1228 531 
L 3431 531 
L 3431 0 
L 469 0 
L 469 531 
Q 828 903 1448 1529 
Q 2069 2156 2228 2338 
Q 2531 2678 2651 2914 
Q 2772 3150 2772 3378 
Q 2772 3750 2511 3984 
Q 2250 4219 1831 4219 
Q 1534 4219 1204 4116 
Q 875 4013 500 3803 
L 500 4441 
Q 881 4594 1212 4672 
Q 1544 4750 1819 4750 
Q 2544 4750 2975 4387 
Q 3406 4025 3406 3419 
Q 3406 3131 3298 2873 
Q 3191 2616 2906 2266 
Q 2828 2175 2409 1742 
Q 1991 1309 1228 531 
z
" transform="scale(0.015625)"/>
      </defs>
      <use xlink:href="#DejaVuSans-32"/>
      <use xlink:href="#DejaVuSans-30" x="63.623047"/>
     </g>
    </g>
   </g>
  </g>
  <g id="axis3d_2">
   <g id="line2d_4">
    <path d="M 191.255038 193.19068 
L 148.627417 236.937105 
" style="fill: none; stroke: #000000; stroke-width: 0.8; stroke-linecap: square"/>
   </g>
   <g id="text_4">
    <!-- y -->
    <g transform="translate(194.935052 244.885961)scale(0.1 -0.1)">
     <defs>
      <path id="DejaVuSans-79" d="M 2059 -325 
Q 1816 -950 1584 -1140 
Q 1353 -1331 966 -1331 
L 506 -1331 
L 506 -850 
L 844 -850 
Q 1081 -850 1212 -737 
Q 1344 -625 1503 -206 
L 1606 56 
L 191 3500 
L 800 3500 
L 1894 763 
L 2988 3500 
L 3597 3500 
L 2059 -325 
z
" transform="scale(0.015625)"/>
     </defs>
     <use xlink:href="#DejaVuSans-79"/>
    </g>
   </g>
   <g id="Line3DCollection_2">
    <path d="M 70.89923 146.275268 
L 73.547152 206.404089 
L 153.309618 232.132015 
" style="fill: none; stroke: #b0b0b0; stroke-width: 0.8"/>
    <path d="M 83.813377 136.851111 
L 85.847214 196.093933 
L 164.450015 220.699227 
" style="fill: none; stroke: #b0b0b0; stroke-width: 0.8"/>
    <path d="M 96.160008 127.841102 
L 97.629574 186.217725 
L 175.097482 209.772307 
" style="fill: none; stroke: #b0b0b0; stroke-width: 0.8"/>
    <path d="M 107.975728 119.218528 
L 108.926245 176.748631 
L 185.284025 199.318408 
" style="fill: none; stroke: #b0b0b0; stroke-width: 0.8"/>
   </g>
   <g id="xtick_3">
    <g id="line2d_5">
     <path d="M 152.637577 231.915243 
L 154.655432 232.566117 
" style="fill: none; stroke: #000000; stroke-width: 0.8; stroke-linecap: square"/>
    </g>
    <g id="text_5">
     <!-- 0 -->
     <g transform="translate(162.972348 253.111562)scale(0.1 -0.1)">
      <use xlink:href="#DejaVuSans-30"/>
     </g>
    </g>
   </g>
   <g id="xtick_4">
    <g id="line2d_6">
     <path d="M 163.788501 220.492151 
L 165.77471 221.1139 
" style="fill: none; stroke: #000000; stroke-width: 0.8; stroke-linecap: square"/>
    </g>
    <g id="text_6">
     <!-- 10 -->
     <g transform="translate(170.652705 241.363282)scale(0.1 -0.1)">
      <defs>
       <path id="DejaVuSans-31" d="M 794 531 
L 1825 531 
L 1825 4091 
L 703 3866 
L 703 4441 
L 1819 4666 
L 2450 4666 
L 2450 531 
L 3481 531 
L 3481 0 
L 794 0 
L 794 531 
z
" transform="scale(0.015625)"/>
      </defs>
      <use xlink:href="#DejaVuSans-31"/>
      <use xlink:href="#DejaVuSans-30" x="63.623047"/>
     </g>
    </g>
   </g>
   <g id="xtick_5">
    <g id="line2d_7">
     <path d="M 174.446231 209.57429 
L 176.401586 210.168828 
" style="fill: none; stroke: #000000; stroke-width: 0.8; stroke-linecap: square"/>
    </g>
    <g id="text_7">
     <!-- 20 -->
     <g transform="translate(181.033205 230.135383)scale(0.1 -0.1)">
      <use xlink:href="#DejaVuSans-32"/>
      <use xlink:href="#DejaVuSans-30" x="63.623047"/>
     </g>
    </g>
   </g>
   <g id="xtick_6">
    <g id="line2d_8">
     <path d="M 184.642779 199.128869 
L 186.568062 199.697943 
" style="fill: none; stroke: #000000; stroke-width: 0.8; stroke-linecap: square"/>
    </g>
    <g id="text_8">
     <!-- 30 -->
     <g transform="translate(190.963872 219.394039)scale(0.1 -0.1)">
      <defs>
       <path id="DejaVuSans-33" d="M 2597 2516 
Q 3050 2419 3304 2112 
Q 3559 1806 3559 1356 
Q 3559 666 3084 287 
Q 2609 -91 1734 -91 
Q 1441 -91 1130 -33 
Q 819 25 488 141 
L 488 750 
Q 750 597 1062 519 
Q 1375 441 1716 441 
Q 2309 441 2620 675 
Q 2931 909 2931 1356 
Q 2931 1769 2642 2001 
Q 2353 2234 1838 2234 
L 1294 2234 
L 1294 2753 
L 1863 2753 
Q 2328 2753 2575 2939 
Q 2822 3125 2822 3475 
Q 2822 3834 2567 4026 
Q 2313 4219 1838 4219 
Q 1578 4219 1281 4162 
Q 984 4106 628 3988 
L 628 4550 
Q 988 4650 1302 4700 
Q 1616 4750 1894 4750 
Q 2613 4750 3031 4423 
Q 3450 4097 3450 3541 
Q 3450 3153 3228 2886 
Q 3006 2619 2597 2516 
z
" transform="scale(0.015625)"/>
      </defs>
      <use xlink:href="#DejaVuSans-33"/>
      <use xlink:href="#DejaVuSans-30" x="63.623047"/>
     </g>
    </g>
   </g>
  </g>
  <g id="axis3d_3">
   <g id="line2d_9">
    <path d="M 191.255038 193.19068 
L 193.956359 134.200715 
" style="fill: none; stroke: #000000; stroke-width: 0.8; stroke-linecap: square"/>
   </g>
   <g id="text_9">
    <!-- z -->
    <g transform="translate(230.097795 161.722719)scale(0.1 -0.1)">
     <defs>
      <path id="DejaVuSans-7a" d="M 353 3500 
L 3084 3500 
L 3084 2975 
L 922 459 
L 3084 459 
L 3084 0 
L 275 0 
L 275 525 
L 2438 3041 
L 353 3041 
L 353 3500 
z
" transform="scale(0.015625)"/>
     </defs>
     <use xlink:href="#DejaVuSans-7a"/>
    </g>
   </g>
   <g id="Line3DCollection_3">
    <path d="M 191.576445 186.171964 
L 115.480916 164.391211 
L 68.039904 203.543157 
" style="fill: none; stroke: #b0b0b0; stroke-width: 0.8"/>
    <path d="M 192.210953 172.315937 
L 115.326717 150.981644 
L 67.356231 189.346242 
" style="fill: none; stroke: #b0b0b0; stroke-width: 0.8"/>
    <path d="M 192.858883 158.166792 
L 115.169414 137.302123 
L 66.657536 174.83739 
" style="fill: none; stroke: #b0b0b0; stroke-width: 0.8"/>
    <path d="M 193.520667 143.715126 
L 115.008911 123.344414 
L 65.943318 160.006206 
" style="fill: none; stroke: #b0b0b0; stroke-width: 0.8"/>
   </g>
   <g id="xtick_7">
    <g id="line2d_10">
     <path d="M 190.937635 185.989118 
L 192.855593 186.538093 
" style="fill: none; stroke: #000000; stroke-width: 0.8; stroke-linecap: square"/>
    </g>
    <g id="text_10">
     <!-- 0 -->
     <g transform="translate(206.691416 191.197663)scale(0.1 -0.1)">
      <use xlink:href="#DejaVuSans-30"/>
     </g>
    </g>
   </g>
   <g id="xtick_8">
    <g id="line2d_11">
     <path d="M 191.565204 172.136751 
L 193.504011 172.674743 
" style="fill: none; stroke: #000000; stroke-width: 0.8; stroke-linecap: square"/>
    </g>
    <g id="text_11">
     <!-- 10 -->
     <g transform="translate(204.331499 177.39327)scale(0.1 -0.1)">
      <use xlink:href="#DejaVuSans-31"/>
      <use xlink:href="#DejaVuSans-30" x="63.623047"/>
     </g>
    </g>
   </g>
   <g id="xtick_9">
    <g id="line2d_12">
     <path d="M 192.206043 157.991462 
L 194.166157 158.51788 
" style="fill: none; stroke: #000000; stroke-width: 0.8; stroke-linecap: square"/>
    </g>
    <g id="text_12">
     <!-- 20 -->
     <g transform="translate(205.170108 163.298519)scale(0.1 -0.1)">
      <use xlink:href="#DejaVuSans-32"/>
      <use xlink:href="#DejaVuSans-30" x="63.623047"/>
     </g>
    </g>
   </g>
   <g id="xtick_10">
    <g id="line2d_13">
     <path d="M 192.860579 143.543859 
L 194.842472 144.058082 
" style="fill: none; stroke: #000000; stroke-width: 0.8; stroke-linecap: square"/>
    </g>
    <g id="text_13">
     <!-- 30 -->
     <g transform="translate(206.026543 148.904153)scale(0.1 -0.1)">
      <use xlink:href="#DejaVuSans-33"/>
      <use xlink:href="#DejaVuSans-30" x="63.623047"/>
     </g>
    </g>
   </g>
  </g>
  <g id="axes_1">
   <g id="Path3DCollection_1">
    <defs>
     <path id="C0_0_5558d90c14" d="M 0 2.236068 
C 0.593012 2.236068 1.161816 2.000462 1.581139 1.581139 
C 2.000462 1.161816 2.236068 0.593012 2.236068 -0 
C 2.236068 -0.593012 2.000462 -1.161816 1.581139 -1.581139 
C 1.161816 -2.000462 0.593012 -2.236068 0 -2.236068 
C -0.593012 -2.236068 -1.161816 -2.000462 -1.581139 -1.581139 
C -2.000462 -1.161816 -2.236068 -0.593012 -2.236068 0 
C -2.236068 0.593012 -2.000462 1.161816 -1.581139 1.581139 
C -1.161816 2.000462 -0.593012 2.236068 0 2.236068 
z
"/>
    </defs>
    <g clip-path="url(#pde1b6ed572)">
     <use xlink:href="#C0_0_5558d90c14" x="167.721561" y="148.122131" style="fill: #008000; fill-opacity: 0.3; stroke: #008000; stroke-opacity: 0.3"/>
    </g>
    <g clip-path="url(#pde1b6ed572)">
     <use xlink:href="#C0_0_5558d90c14" x="158.985411" y="153.890483" style="fill: #008000; fill-opacity: 0.377756; stroke: #008000; stroke-opacity: 0.377756"/>
    </g>
    <g clip-path="url(#pde1b6ed572)">
     <use xlink:href="#C0_0_5558d90c14" x="150.248637" y="159.659246" style="fill: #008000; fill-opacity: 0.455517; stroke: #008000; stroke-opacity: 0.455517"/>
    </g>
    <g clip-path="url(#pde1b6ed572)">
     <use xlink:href="#C0_0_5558d90c14" x="141.51124" y="165.428422" style="fill: #008000; fill-opacity: 0.533283; stroke: #008000; stroke-opacity: 0.533283"/>
    </g>
    <g clip-path="url(#pde1b6ed572)">
     <use xlink:href="#C0_0_5558d90c14" x="132.773218" y="171.19801" style="fill: #008000; fill-opacity: 0.611056; stroke: #008000; stroke-opacity: 0.611056"/>
    </g>
    <g clip-path="url(#pde1b6ed572)">
     <use xlink:href="#C0_0_5558d90c14" x="124.034572" y="176.96801" style="fill: #008000; fill-opacity: 0.688833; stroke: #008000; stroke-opacity: 0.688833"/>
    </g>
    <g clip-path="url(#pde1b6ed572)">
     <use xlink:href="#C0_0_5558d90c14" x="115.295302" y="182.738422" style="fill: #008000; fill-opacity: 0.766617; stroke: #008000; stroke-opacity: 0.766617"/>
    </g>
    <g clip-path="url(#pde1b6ed572)">
     <use xlink:href="#C0_0_5558d90c14" x="106.555408" y="188.509246" style="fill: #008000; fill-opacity: 0.844406; stroke: #008000; stroke-opacity: 0.844406"/>
    </g>
    <g clip-path="url(#pde1b6ed572)">
     <use xlink:href="#C0_0_5558d90c14" x="97.81489" y="194.280482" style="fill: #008000; fill-opacity: 0.9222; stroke: #008000; stroke-opacity: 0.9222"/>
    </g>
    <g clip-path="url(#pde1b6ed572)">
     <use xlink:href="#C0_0_5558d90c14" x="89.073747" y="200.05213" style="fill: #008000; stroke: #008000"/>
    </g>
   </g>
   <g id="text_14">
    <!-- X - Y - Z -->
    <g transform="translate(105.182438 97.104)scale(0.12 -0.12)">
     <defs>
      <path id="DejaVuSans-58" d="M 403 4666 
L 1081 4666 
L 2241 2931 
L 3406 4666 
L 4084 4666 
L 2584 2425 
L 4184 0 
L 3506 0 
L 2194 1984 
L 872 0 
L 191 0 
L 1856 2491 
L 403 4666 
z
" transform="scale(0.015625)"/>
      <path id="DejaVuSans-20" transform="scale(0.015625)"/>
      <path id="DejaVuSans-2d" d="M 313 2009 
L 1997 2009 
L 1997 1497 
L 313 1497 
L 313 2009 
z
" transform="scale(0.015625)"/>
      <path id="DejaVuSans-59" d="M -13 4666 
L 666 4666 
L 1959 2747 
L 3244 4666 
L 3922 4666 
L 2272 2222 
L 2272 0 
L 1638 0 
L 1638 2222 
L -13 4666 
z
" transform="scale(0.015625)"/>
      <path id="DejaVuSans-5a" d="M 359 4666 
L 4025 4666 
L 4025 4184 
L 1075 531 
L 4097 531 
L 4097 0 
L 288 0 
L 288 481 
L 3238 4134 
L 359 4134 
L 359 4666 
z
" transform="scale(0.015625)"/>
     </defs>
     <use xlink:href="#DejaVuSans-58"/>
     <use xlink:href="#DejaVuSans-20" x="68.505859"/>
     <use xlink:href="#DejaVuSans-2d" x="100.292969"/>
     <use xlink:href="#DejaVuSans-20" x="136.376953"/>
     <use xlink:href="#DejaVuSans-59" x="168.164062"/>
     <use xlink:href="#DejaVuSans-20" x="229.248047"/>
     <use xlink:href="#DejaVuSans-2d" x="261.035156"/>
     <use xlink:href="#DejaVuSans-20" x="297.119141"/>
     <use xlink:href="#DejaVuSans-5a" x="328.90625"/>
    </g>
   </g>
   <g id="Path3DCollection_2">
    <defs>
     <path id="C1_0_fe413d59ea" d="M 0 2.236068 
C 0.593012 2.236068 1.161816 2.000462 1.581139 1.581139 
C 2.000462 1.161816 2.236068 0.593012 2.236068 -0 
C 2.236068 -0.593012 2.000462 -1.161816 1.581139 -1.581139 
C 1.161816 -2.000462 0.593012 -2.236068 0 -2.236068 
C -0.593012 -2.236068 -1.161816 -2.000462 -1.581139 -1.581139 
C -2.000462 -1.161816 -2.236068 -0.593012 -2.236068 0 
C -2.236068 0.593012 -2.000462 1.161816 -1.581139 1.581139 
C -1.161816 2.000462 -0.593012 2.236068 0 2.236068 
z
"/>
    </defs>
    <g clip-path="url(#pde1b6ed572)">
     <use xlink:href="#C1_0_fe413d59ea" x="159.46884" y="177.131825" style="fill: #ff0000; fill-opacity: 0.3; stroke: #ff0000; stroke-opacity: 0.3"/>
    </g>
    <g clip-path="url(#pde1b6ed572)">
     <use xlink:href="#C1_0_fe413d59ea" x="166.538283" y="142.669208" style="fill: #ff0000; fill-opacity: 0.456189; stroke: #ff0000; stroke-opacity: 0.456189"/>
    </g>
    <g clip-path="url(#pde1b6ed572)">
     <use xlink:href="#C1_0_fe413d59ea" x="94.578102" y="156.59679" style="fill: #ff0000; fill-opacity: 0.49797; stroke: #ff0000; stroke-opacity: 0.49797"/>
    </g>
    <g clip-path="url(#pde1b6ed572)">
     <use xlink:href="#C1_0_fe413d59ea" x="98.486491" y="204.071995" style="fill: #ff0000; fill-opacity: 0.503642; stroke: #ff0000; stroke-opacity: 0.503642"/>
    </g>
    <g clip-path="url(#pde1b6ed572)">
     <use xlink:href="#C1_0_fe413d59ea" x="173.637145" y="135.937344" style="fill: #ff0000; fill-opacity: 0.526257; stroke: #ff0000; stroke-opacity: 0.526257"/>
    </g>
    <g clip-path="url(#pde1b6ed572)">
     <use xlink:href="#C1_0_fe413d59ea" x="131.654033" y="142.550977" style="fill: #ff0000; fill-opacity: 0.645776; stroke: #ff0000; stroke-opacity: 0.645776"/>
    </g>
    <g clip-path="url(#pde1b6ed572)">
     <use xlink:href="#C1_0_fe413d59ea" x="166.928869" y="191.742479" style="fill: #ff0000; fill-opacity: 0.727898; stroke: #ff0000; stroke-opacity: 0.727898"/>
    </g>
    <g clip-path="url(#pde1b6ed572)">
     <use xlink:href="#C1_0_fe413d59ea" x="75.3724" y="183.143132" style="fill: #ff0000; fill-opacity: 0.730166; stroke: #ff0000; stroke-opacity: 0.730166"/>
    </g>
    <g clip-path="url(#pde1b6ed572)">
     <use xlink:href="#C1_0_fe413d59ea" x="113.817245" y="208.119828" style="fill: #ff0000; fill-opacity: 0.812803; stroke: #ff0000; stroke-opacity: 0.812803"/>
    </g>
    <g clip-path="url(#pde1b6ed572)">
     <use xlink:href="#C1_0_fe413d59ea" x="164.797032" y="164.98406" style="fill: #ff0000; stroke: #ff0000"/>
    </g>
   </g>
  </g>
  <g id="patch_6">
   <path d="M 271.872 245.952 
L 414.72 245.952 
L 414.72 103.104 
L 271.872 103.104 
z
" style="fill: #ffffff"/>
  </g>
  <g id="pane3d_4">
   <g id="patch_7">
    <path d="M 282.658009 210.730261 
L 329.831084 171.188854 
L 329.175333 114.163077 
L 279.744783 150.235241 
" style="fill: #f2f2f2; opacity: 0.5; stroke: #f2f2f2; stroke-linejoin: miter"/>
   </g>
  </g>
  <g id="pane3d_5">
   <g id="patch_8">
    <path d="M 329.831084 171.188854 
L 405.527038 193.19068 
L 408.228359 134.200715 
L 329.175333 114.163077 
" style="fill: #e6e6e6; opacity: 0.5; stroke: #e6e6e6; stroke-linejoin: miter"/>
   </g>
  </g>
  <g id="pane3d_6">
   <g id="patch_9">
    <path d="M 282.658009 210.730261 
L 362.899417 236.937105 
L 405.527038 193.19068 
L 329.831084 171.188854 
" style="fill: #ececec; opacity: 0.5; stroke: #ececec; stroke-linejoin: miter"/>
   </g>
  </g>
  <g id="axis3d_4">
   <g id="line2d_14">
    <path d="M 282.658009 210.730261 
L 362.899417 236.937105 
" style="fill: none; stroke: #000000; stroke-width: 0.8; stroke-linecap: square"/>
   </g>
   <g id="text_15">
    <!-- x -->
    <g transform="translate(302.352592 261.774233)scale(0.1 -0.1)">
     <use xlink:href="#DejaVuSans-78"/>
    </g>
   </g>
   <g id="Line3DCollection_4">
    <path d="M 297.351794 215.529251 
L 343.742568 175.232374 
L 343.678767 117.839275 
" style="fill: none; stroke: #b0b0b0; stroke-width: 0.8"/>
    <path d="M 332.489151 227.005112 
L 376.918043 184.875175 
L 378.311327 126.61762 
" style="fill: none; stroke: #b0b0b0; stroke-width: 0.8"/>
   </g>
   <g id="xtick_11">
    <g id="line2d_15">
     <path d="M 297.755979 215.17816 
L 296.541677 216.232951 
" style="fill: none; stroke: #000000; stroke-width: 0.8; stroke-linecap: square"/>
    </g>
    <g id="text_16">
     <!-- 0 -->
     <g transform="translate(286.635725 239.016409)scale(0.1 -0.1)">
      <use xlink:href="#DejaVuSans-30"/>
     </g>
    </g>
   </g>
   <g id="xtick_12">
    <g id="line2d_16">
     <path d="M 332.876987 226.637345 
L 331.711767 227.742271 
" style="fill: none; stroke: #000000; stroke-width: 0.8; stroke-linecap: square"/>
    </g>
    <g id="text_17">
     <!-- 20 -->
     <g transform="translate(318.665185 250.950175)scale(0.1 -0.1)">
      <use xlink:href="#DejaVuSans-32"/>
      <use xlink:href="#DejaVuSans-30" x="63.623047"/>
     </g>
    </g>
   </g>
  </g>
  <g id="axis3d_5">
   <g id="line2d_17">
    <path d="M 405.527038 193.19068 
L 362.899417 236.937105 
" style="fill: none; stroke: #000000; stroke-width: 0.8; stroke-linecap: square"/>
   </g>
   <g id="text_18">
    <!-- y -->
    <g transform="translate(409.207052 244.885961)scale(0.1 -0.1)">
     <use xlink:href="#DejaVuSans-79"/>
    </g>
   </g>
   <g id="Line3DCollection_5">
    <path d="M 285.17123 146.275268 
L 287.819152 206.404089 
L 367.581618 232.132015 
" style="fill: none; stroke: #b0b0b0; stroke-width: 0.8"/>
    <path d="M 298.085377 136.851111 
L 300.119214 196.093933 
L 378.722015 220.699227 
" style="fill: none; stroke: #b0b0b0; stroke-width: 0.8"/>
    <path d="M 310.432008 127.841102 
L 311.901574 186.217725 
L 389.369482 209.772307 
" style="fill: none; stroke: #b0b0b0; stroke-width: 0.8"/>
    <path d="M 322.247728 119.218528 
L 323.198245 176.748631 
L 399.556025 199.318408 
" style="fill: none; stroke: #b0b0b0; stroke-width: 0.8"/>
   </g>
   <g id="xtick_13">
    <g id="line2d_18">
     <path d="M 366.909577 231.915243 
L 368.927432 232.566117 
" style="fill: none; stroke: #000000; stroke-width: 0.8; stroke-linecap: square"/>
    </g>
    <g id="text_19">
     <!-- 0 -->
     <g transform="translate(377.244348 253.111562)scale(0.1 -0.1)">
      <use xlink:href="#DejaVuSans-30"/>
     </g>
    </g>
   </g>
   <g id="xtick_14">
    <g id="line2d_19">
     <path d="M 378.060501 220.492151 
L 380.04671 221.1139 
" style="fill: none; stroke: #000000; stroke-width: 0.8; stroke-linecap: square"/>
    </g>
    <g id="text_20">
     <!-- 10 -->
     <g transform="translate(384.924705 241.363282)scale(0.1 -0.1)">
      <use xlink:href="#DejaVuSans-31"/>
      <use xlink:href="#DejaVuSans-30" x="63.623047"/>
     </g>
    </g>
   </g>
   <g id="xtick_15">
    <g id="line2d_20">
     <path d="M 388.718231 209.57429 
L 390.673586 210.168828 
" style="fill: none; stroke: #000000; stroke-width: 0.8; stroke-linecap: square"/>
    </g>
    <g id="text_21">
     <!-- 20 -->
     <g transform="translate(395.305205 230.135383)scale(0.1 -0.1)">
      <use xlink:href="#DejaVuSans-32"/>
      <use xlink:href="#DejaVuSans-30" x="63.623047"/>
     </g>
    </g>
   </g>
   <g id="xtick_16">
    <g id="line2d_21">
     <path d="M 398.914779 199.128869 
L 400.840062 199.697943 
" style="fill: none; stroke: #000000; stroke-width: 0.8; stroke-linecap: square"/>
    </g>
    <g id="text_22">
     <!-- 30 -->
     <g transform="translate(405.235872 219.394039)scale(0.1 -0.1)">
      <use xlink:href="#DejaVuSans-33"/>
      <use xlink:href="#DejaVuSans-30" x="63.623047"/>
     </g>
    </g>
   </g>
  </g>
  <g id="axis3d_6">
   <g id="line2d_22">
    <path d="M 405.527038 193.19068 
L 408.228359 134.200715 
" style="fill: none; stroke: #000000; stroke-width: 0.8; stroke-linecap: square"/>
   </g>
   <g id="text_23">
    <!-- z -->
    <g transform="translate(444.369795 161.722719)scale(0.1 -0.1)">
     <use xlink:href="#DejaVuSans-7a"/>
    </g>
   </g>
   <g id="Line3DCollection_6">
    <path d="M 405.848445 186.171964 
L 329.752916 164.391211 
L 282.311904 203.543157 
" style="fill: none; stroke: #b0b0b0; stroke-width: 0.8"/>
    <path d="M 406.482953 172.315937 
L 329.598717 150.981644 
L 281.628231 189.346242 
" style="fill: none; stroke: #b0b0b0; stroke-width: 0.8"/>
    <path d="M 407.130883 158.166792 
L 329.441414 137.302123 
L 280.929536 174.83739 
" style="fill: none; stroke: #b0b0b0; stroke-width: 0.8"/>
    <path d="M 407.792667 143.715126 
L 329.280911 123.344414 
L 280.215318 160.006206 
" style="fill: none; stroke: #b0b0b0; stroke-width: 0.8"/>
   </g>
   <g id="xtick_17">
    <g id="line2d_23">
     <path d="M 405.209635 185.989118 
L 407.127593 186.538093 
" style="fill: none; stroke: #000000; stroke-width: 0.8; stroke-linecap: square"/>
    </g>
    <g id="text_24">
     <!-- 0 -->
     <g transform="translate(420.963416 191.197663)scale(0.1 -0.1)">
      <use xlink:href="#DejaVuSans-30"/>
     </g>
    </g>
   </g>
   <g id="xtick_18">
    <g id="line2d_24">
     <path d="M 405.837204 172.136751 
L 407.776011 172.674743 
" style="fill: none; stroke: #000000; stroke-width: 0.8; stroke-linecap: square"/>
    </g>
    <g id="text_25">
     <!-- 10 -->
     <g transform="translate(418.603499 177.39327)scale(0.1 -0.1)">
      <use xlink:href="#DejaVuSans-31"/>
      <use xlink:href="#DejaVuSans-30" x="63.623047"/>
     </g>
    </g>
   </g>
   <g id="xtick_19">
    <g id="line2d_25">
     <path d="M 406.478043 157.991462 
L 408.438157 158.51788 
" style="fill: none; stroke: #000000; stroke-width: 0.8; stroke-linecap: square"/>
    </g>
    <g id="text_26">
     <!-- 20 -->
     <g transform="translate(419.442108 163.298519)scale(0.1 -0.1)">
      <use xlink:href="#DejaVuSans-32"/>
      <use xlink:href="#DejaVuSans-30" x="63.623047"/>
     </g>
    </g>
   </g>
   <g id="xtick_20">
    <g id="line2d_26">
     <path d="M 407.132579 143.543859 
L 409.114472 144.058082 
" style="fill: none; stroke: #000000; stroke-width: 0.8; stroke-linecap: square"/>
    </g>
    <g id="text_27">
     <!-- 30 -->
     <g transform="translate(420.298543 148.904153)scale(0.1 -0.1)">
      <use xlink:href="#DejaVuSans-33"/>
      <use xlink:href="#DejaVuSans-30" x="63.623047"/>
     </g>
    </g>
   </g>
  </g>
  <g id="axes_2">
   <g id="Path3DCollection_3">
    <defs>
     <path id="C2_0_d4e9f41c5e" d="M 0 2.236068 
C 0.593012 2.236068 1.161816 2.000462 1.581139 1.581139 
C 2.000462 1.161816 2.236068 0.593012 2.236068 -0 
C 2.236068 -0.593012 2.000462 -1.161816 1.581139 -1.581139 
C 1.161816 -2.000462 0.593012 -2.236068 0 -2.236068 
C -0.593012 -2.236068 -1.161816 -2.000462 -1.581139 -1.581139 
C -2.000462 -1.161816 -2.236068 -0.593012 -2.236068 0 
C -2.236068 0.593012 -2.000462 1.161816 -1.581139 1.581139 
C -1.161816 2.000462 -0.593012 2.236068 0 2.236068 
z
"/>
    </defs>
    <g clip-path="url(#pf56b599b60)">
     <use xlink:href="#C2_0_d4e9f41c5e" x="381.993561" y="148.122131" style="fill: #008000; fill-opacity: 0.3; stroke: #008000; stroke-opacity: 0.3"/>
    </g>
    <g clip-path="url(#pf56b599b60)">
     <use xlink:href="#C2_0_d4e9f41c5e" x="373.257411" y="153.890483" style="fill: #008000; fill-opacity: 0.377756; stroke: #008000; stroke-opacity: 0.377756"/>
    </g>
    <g clip-path="url(#pf56b599b60)">
     <use xlink:href="#C2_0_d4e9f41c5e" x="364.520637" y="159.659246" style="fill: #008000; fill-opacity: 0.455517; stroke: #008000; stroke-opacity: 0.455517"/>
    </g>
    <g clip-path="url(#pf56b599b60)">
     <use xlink:href="#C2_0_d4e9f41c5e" x="355.78324" y="165.428422" style="fill: #008000; fill-opacity: 0.533283; stroke: #008000; stroke-opacity: 0.533283"/>
    </g>
    <g clip-path="url(#pf56b599b60)">
     <use xlink:href="#C2_0_d4e9f41c5e" x="347.045218" y="171.19801" style="fill: #008000; fill-opacity: 0.611056; stroke: #008000; stroke-opacity: 0.611056"/>
    </g>
    <g clip-path="url(#pf56b599b60)">
     <use xlink:href="#C2_0_d4e9f41c5e" x="338.306572" y="176.96801" style="fill: #008000; fill-opacity: 0.688833; stroke: #008000; stroke-opacity: 0.688833"/>
    </g>
    <g clip-path="url(#pf56b599b60)">
     <use xlink:href="#C2_0_d4e9f41c5e" x="329.567302" y="182.738422" style="fill: #008000; fill-opacity: 0.766617; stroke: #008000; stroke-opacity: 0.766617"/>
    </g>
    <g clip-path="url(#pf56b599b60)">
     <use xlink:href="#C2_0_d4e9f41c5e" x="320.827408" y="188.509246" style="fill: #008000; fill-opacity: 0.844406; stroke: #008000; stroke-opacity: 0.844406"/>
    </g>
    <g clip-path="url(#pf56b599b60)">
     <use xlink:href="#C2_0_d4e9f41c5e" x="312.08689" y="194.280482" style="fill: #008000; fill-opacity: 0.9222; stroke: #008000; stroke-opacity: 0.9222"/>
    </g>
    <g clip-path="url(#pf56b599b60)">
     <use xlink:href="#C2_0_d4e9f41c5e" x="303.345747" y="200.05213" style="fill: #008000; stroke: #008000"/>
    </g>
   </g>
   <g id="text_28">
    <!-- X - Y - Z -->
    <g transform="translate(319.454437 97.104)scale(0.12 -0.12)">
     <use xlink:href="#DejaVuSans-58"/>
     <use xlink:href="#DejaVuSans-20" x="68.505859"/>
     <use xlink:href="#DejaVuSans-2d" x="100.292969"/>
     <use xlink:href="#DejaVuSans-20" x="136.376953"/>
     <use xlink:href="#DejaVuSans-59" x="168.164062"/>
     <use xlink:href="#DejaVuSans-20" x="229.248047"/>
     <use xlink:href="#DejaVuSans-2d" x="261.035156"/>
     <use xlink:href="#DejaVuSans-20" x="297.119141"/>
     <use xlink:href="#DejaVuSans-5a" x="328.90625"/>
    </g>
   </g>
   <g id="Path3DCollection_4">
    <defs>
     <path id="C3_0_1be4aa589e" d="M 0 2.236068 
C 0.593012 2.236068 1.161816 2.000462 1.581139 1.581139 
C 2.000462 1.161816 2.236068 0.593012 2.236068 -0 
C 2.236068 -0.593012 2.000462 -1.161816 1.581139 -1.581139 
C 1.161816 -2.000462 0.593012 -2.236068 0 -2.236068 
C -0.593012 -2.236068 -1.161816 -2.000462 -1.581139 -1.581139 
C -2.000462 -1.161816 -2.236068 -0.593012 -2.236068 0 
C -2.236068 0.593012 -2.000462 1.161816 -1.581139 1.581139 
C -1.161816 2.000462 -0.593012 2.236068 0 2.236068 
z
"/>
    </defs>
    <g clip-path="url(#pf56b599b60)">
     <use xlink:href="#C3_0_1be4aa589e" x="373.74084" y="177.131825" style="fill: #ff0000; fill-opacity: 0.3; stroke: #ff0000; stroke-opacity: 0.3"/>
    </g>
    <g clip-path="url(#pf56b599b60)">
     <use xlink:href="#C3_0_1be4aa589e" x="380.810283" y="142.669208" style="fill: #ff0000; fill-opacity: 0.456189; stroke: #ff0000; stroke-opacity: 0.456189"/>
    </g>
    <g clip-path="url(#pf56b599b60)">
     <use xlink:href="#C3_0_1be4aa589e" x="308.850102" y="156.59679" style="fill: #ff0000; fill-opacity: 0.49797; stroke: #ff0000; stroke-opacity: 0.49797"/>
    </g>
    <g clip-path="url(#pf56b599b60)">
     <use xlink:href="#C3_0_1be4aa589e" x="312.758491" y="204.071995" style="fill: #ff0000; fill-opacity: 0.503642; stroke: #ff0000; stroke-opacity: 0.503642"/>
    </g>
    <g clip-path="url(#pf56b599b60)">
     <use xlink:href="#C3_0_1be4aa589e" x="387.909145" y="135.937344" style="fill: #ff0000; fill-opacity: 0.526257; stroke: #ff0000; stroke-opacity: 0.526257"/>
    </g>
    <g clip-path="url(#pf56b599b60)">
     <use xlink:href="#C3_0_1be4aa589e" x="345.926033" y="142.550977" style="fill: #ff0000; fill-opacity: 0.645776; stroke: #ff0000; stroke-opacity: 0.645776"/>
    </g>
    <g clip-path="url(#pf56b599b60)">
     <use xlink:href="#C3_0_1be4aa589e" x="381.200869" y="191.742479" style="fill: #ff0000; fill-opacity: 0.727898; stroke: #ff0000; stroke-opacity: 0.727898"/>
    </g>
    <g clip-path="url(#pf56b599b60)">
     <use xlink:href="#C3_0_1be4aa589e" x="289.6444" y="183.143132" style="fill: #ff0000; fill-opacity: 0.730166; stroke: #ff0000; stroke-opacity: 0.730166"/>
    </g>
    <g clip-path="url(#pf56b599b60)">
     <use xlink:href="#C3_0_1be4aa589e" x="328.089245" y="208.119828" style="fill: #ff0000; fill-opacity: 0.812803; stroke: #ff0000; stroke-opacity: 0.812803"/>
    </g>
    <g clip-path="url(#pf56b599b60)">
     <use xlink:href="#C3_0_1be4aa589e" x="379.069032" y="164.98406" style="fill: #ff0000; stroke: #ff0000"/>
    </g>
   </g>
  </g>
  <g id="legend_1">
   <g id="patch_10">
    <path d="M 383.015625 37.35625 
L 453.8 37.35625 
Q 455.8 37.35625 455.8 35.35625 
L 455.8 7 
Q 455.8 5 453.8 5 
L 383.015625 5 
Q 381.015625 5 381.015625 7 
L 381.015625 35.35625 
Q 381.015625 37.35625 383.015625 37.35625 
z
" style="fill: #ffffff; opacity: 0.8; stroke: #cccccc; stroke-linejoin: miter"/>
   </g>
   <g id="Path3DCollection_5">
    <defs>
     <path id="m2fb6b95c47" d="M 0 2.236068 
C 0.593012 2.236068 1.161816 2.000462 1.581139 1.581139 
C 2.000462 1.161816 2.236068 0.593012 2.236068 0 
C 2.236068 -0.593012 2.000462 -1.161816 1.581139 -1.581139 
C 1.161816 -2.000462 0.593012 -2.236068 0 -2.236068 
C -0.593012 -2.236068 -1.161816 -2.000462 -1.581139 -1.581139 
C -2.000462 -1.161816 -2.236068 -0.593012 -2.236068 0 
C -2.236068 0.593012 -2.000462 1.161816 -1.581139 1.581139 
C -1.161816 2.000462 -0.593012 2.236068 0 2.236068 
z
" style="stroke: #ff0000"/>
    </defs>
    <g>
     <use xlink:href="#m2fb6b95c47" x="395.015625" y="13.973437" style="fill: #ff0000; stroke: #ff0000"/>
    </g>
   </g>
   <g id="text_29">
    <!-- random -->
    <g transform="translate(413.015625 16.598437)scale(0.1 -0.1)">
     <defs>
      <path id="DejaVuSans-72" d="M 2631 2963 
Q 2534 3019 2420 3045 
Q 2306 3072 2169 3072 
Q 1681 3072 1420 2755 
Q 1159 2438 1159 1844 
L 1159 0 
L 581 0 
L 581 3500 
L 1159 3500 
L 1159 2956 
Q 1341 3275 1631 3429 
Q 1922 3584 2338 3584 
Q 2397 3584 2469 3576 
Q 2541 3569 2628 3553 
L 2631 2963 
z
" transform="scale(0.015625)"/>
      <path id="DejaVuSans-61" d="M 2194 1759 
Q 1497 1759 1228 1600 
Q 959 1441 959 1056 
Q 959 750 1161 570 
Q 1363 391 1709 391 
Q 2188 391 2477 730 
Q 2766 1069 2766 1631 
L 2766 1759 
L 2194 1759 
z
M 3341 1997 
L 3341 0 
L 2766 0 
L 2766 531 
Q 2569 213 2275 61 
Q 1981 -91 1556 -91 
Q 1019 -91 701 211 
Q 384 513 384 1019 
Q 384 1609 779 1909 
Q 1175 2209 1959 2209 
L 2766 2209 
L 2766 2266 
Q 2766 2663 2505 2880 
Q 2244 3097 1772 3097 
Q 1472 3097 1187 3025 
Q 903 2953 641 2809 
L 641 3341 
Q 956 3463 1253 3523 
Q 1550 3584 1831 3584 
Q 2591 3584 2966 3190 
Q 3341 2797 3341 1997 
z
" transform="scale(0.015625)"/>
      <path id="DejaVuSans-6e" d="M 3513 2113 
L 3513 0 
L 2938 0 
L 2938 2094 
Q 2938 2591 2744 2837 
Q 2550 3084 2163 3084 
Q 1697 3084 1428 2787 
Q 1159 2491 1159 1978 
L 1159 0 
L 581 0 
L 581 3500 
L 1159 3500 
L 1159 2956 
Q 1366 3272 1645 3428 
Q 1925 3584 2291 3584 
Q 2894 3584 3203 3211 
Q 3513 2838 3513 2113 
z
" transform="scale(0.015625)"/>
      <path id="DejaVuSans-64" d="M 2906 2969 
L 2906 4863 
L 3481 4863 
L 3481 0 
L 2906 0 
L 2906 525 
Q 2725 213 2448 61 
Q 2172 -91 1784 -91 
Q 1150 -91 751 415 
Q 353 922 353 1747 
Q 353 2572 751 3078 
Q 1150 3584 1784 3584 
Q 2172 3584 2448 3432 
Q 2725 3281 2906 2969 
z
M 947 1747 
Q 947 1113 1208 752 
Q 1469 391 1925 391 
Q 2381 391 2643 752 
Q 2906 1113 2906 1747 
Q 2906 2381 2643 2742 
Q 2381 3103 1925 3103 
Q 1469 3103 1208 2742 
Q 947 2381 947 1747 
z
" transform="scale(0.015625)"/>
      <path id="DejaVuSans-6f" d="M 1959 3097 
Q 1497 3097 1228 2736 
Q 959 2375 959 1747 
Q 959 1119 1226 758 
Q 1494 397 1959 397 
Q 2419 397 2687 759 
Q 2956 1122 2956 1747 
Q 2956 2369 2687 2733 
Q 2419 3097 1959 3097 
z
M 1959 3584 
Q 2709 3584 3137 3096 
Q 3566 2609 3566 1747 
Q 3566 888 3137 398 
Q 2709 -91 1959 -91 
Q 1206 -91 779 398 
Q 353 888 353 1747 
Q 353 2609 779 3096 
Q 1206 3584 1959 3584 
z
" transform="scale(0.015625)"/>
      <path id="DejaVuSans-6d" d="M 3328 2828 
Q 3544 3216 3844 3400 
Q 4144 3584 4550 3584 
Q 5097 3584 5394 3201 
Q 5691 2819 5691 2113 
L 5691 0 
L 5113 0 
L 5113 2094 
Q 5113 2597 4934 2840 
Q 4756 3084 4391 3084 
Q 3944 3084 3684 2787 
Q 3425 2491 3425 1978 
L 3425 0 
L 2847 0 
L 2847 2094 
Q 2847 2600 2669 2842 
Q 2491 3084 2119 3084 
Q 1678 3084 1418 2786 
Q 1159 2488 1159 1978 
L 1159 0 
L 581 0 
L 581 3500 
L 1159 3500 
L 1159 2956 
Q 1356 3278 1631 3431 
Q 1906 3584 2284 3584 
Q 2666 3584 2933 3390 
Q 3200 3197 3328 2828 
z
" transform="scale(0.015625)"/>
     </defs>
     <use xlink:href="#DejaVuSans-72"/>
     <use xlink:href="#DejaVuSans-61" x="41.113281"/>
     <use xlink:href="#DejaVuSans-6e" x="102.392578"/>
     <use xlink:href="#DejaVuSans-64" x="165.771484"/>
     <use xlink:href="#DejaVuSans-6f" x="229.248047"/>
     <use xlink:href="#DejaVuSans-6d" x="290.429688"/>
    </g>
   </g>
   <g id="Path3DCollection_6">
    <defs>
     <path id="m2092d49247" d="M 0 2.236068 
C 0.593012 2.236068 1.161816 2.000462 1.581139 1.581139 
C 2.000462 1.161816 2.236068 0.593012 2.236068 0 
C 2.236068 -0.593012 2.000462 -1.161816 1.581139 -1.581139 
C 1.161816 -2.000462 0.593012 -2.236068 0 -2.236068 
C -0.593012 -2.236068 -1.161816 -2.000462 -1.581139 -1.581139 
C -2.000462 -1.161816 -2.236068 -0.593012 -2.236068 0 
C -2.236068 0.593012 -2.000462 1.161816 -1.581139 1.581139 
C -1.161816 2.000462 -0.593012 2.236068 0 2.236068 
z
" style="stroke: #008000"/>
    </defs>
    <g>
     <use xlink:href="#m2092d49247" x="395.015625" y="28.651563" style="fill: #008000; stroke: #008000"/>
    </g>
   </g>
   <g id="text_30">
    <!-- arange -->
    <g transform="translate(413.015625 31.276563)scale(0.1 -0.1)">
     <defs>
      <path id="DejaVuSans-67" d="M 2906 1791 
Q 2906 2416 2648 2759 
Q 2391 3103 1925 3103 
Q 1463 3103 1205 2759 
Q 947 2416 947 1791 
Q 947 1169 1205 825 
Q 1463 481 1925 481 
Q 2391 481 2648 825 
Q 2906 1169 2906 1791 
z
M 3481 434 
Q 3481 -459 3084 -895 
Q 2688 -1331 1869 -1331 
Q 1566 -1331 1297 -1286 
Q 1028 -1241 775 -1147 
L 775 -588 
Q 1028 -725 1275 -790 
Q 1522 -856 1778 -856 
Q 2344 -856 2625 -561 
Q 2906 -266 2906 331 
L 2906 616 
Q 2728 306 2450 153 
Q 2172 0 1784 0 
Q 1141 0 747 490 
Q 353 981 353 1791 
Q 353 2603 747 3093 
Q 1141 3584 1784 3584 
Q 2172 3584 2450 3431 
Q 2728 3278 2906 2969 
L 2906 3500 
L 3481 3500 
L 3481 434 
z
" transform="scale(0.015625)"/>
      <path id="DejaVuSans-65" d="M 3597 1894 
L 3597 1613 
L 953 1613 
Q 991 1019 1311 708 
Q 1631 397 2203 397 
Q 2534 397 2845 478 
Q 3156 559 3463 722 
L 3463 178 
Q 3153 47 2828 -22 
Q 2503 -91 2169 -91 
Q 1331 -91 842 396 
Q 353 884 353 1716 
Q 353 2575 817 3079 
Q 1281 3584 2069 3584 
Q 2775 3584 3186 3129 
Q 3597 2675 3597 1894 
z
M 3022 2063 
Q 3016 2534 2758 2815 
Q 2500 3097 2075 3097 
Q 1594 3097 1305 2825 
Q 1016 2553 972 2059 
L 3022 2063 
z
" transform="scale(0.015625)"/>
     </defs>
     <use xlink:href="#DejaVuSans-61"/>
     <use xlink:href="#DejaVuSans-72" x="61.279297"/>
     <use xlink:href="#DejaVuSans-61" x="102.392578"/>
     <use xlink:href="#DejaVuSans-6e" x="163.671875"/>
     <use xlink:href="#DejaVuSans-67" x="227.050781"/>
     <use xlink:href="#DejaVuSans-65" x="290.527344"/>
    </g>
   </g>
  </g>
 </g>
 <defs>
  <clipPath id="pde1b6ed572">
   <rect x="57.6" y="103.104" width="142.848" height="142.848"/>
  </clipPath>
  <clipPath id="pf56b599b60">
   <rect x="271.872" y="103.104" width="142.848" height="142.848"/>
  </clipPath>
 </defs>
</svg>
