<?xml version="1.0" encoding="utf-8" standalone="no"?>
<!DOCTYPE svg PUBLIC "-//W3C//DTD SVG 1.1//EN"
  "http://www.w3.org/Graphics/SVG/1.1/DTD/svg11.dtd">
<svg xmlns:xlink="http://www.w3.org/1999/xlink" width="460.8pt" height="345.6pt" viewBox="0 0 460.8 345.6" xmlns="http://www.w3.org/2000/svg" version="1.1">
 <metadata>
  <rdf:RDF xmlns:dc="http://purl.org/dc/elements/1.1/" xmlns:cc="http://creativecommons.org/ns#" xmlns:rdf="http://www.w3.org/1999/02/22-rdf-syntax-ns#">
   <cc:Work>
    <dc:type rdf:resource="http://purl.org/dc/dcmitype/StillImage"/>
    <dc:date>2023-08-20T06:30:30.468656</dc:date>
    <dc:format>image/svg+xml</dc:format>
    <dc:creator>
     <cc:Agent>
      <dc:title>Matplotlib v3.5.1, https://matplotlib.org/</dc:title>
     </cc:Agent>
    </dc:creator>
   </cc:Work>
  </rdf:RDF>
 </metadata>
 <defs>
  <style type="text/css">*{stroke-linejoin: round; stroke-linecap: butt}</style>
 </defs>
 <g id="figure_1">
  <g id="patch_1">
   <path d="M 0 345.6 
L 460.8 345.6 
L 460.8 0 
L 0 0 
z
" style="fill: #ffffff"/>
  </g>
  <g id="axes_1">
   <g id="patch_2">
    <path d="M 44.57 317.72 
L 400.39 317.72 
L 400.39 10.8 
L 44.57 10.8 
z
" style="fill: #ffffff"/>
   </g>
   <g id="patch_3">
    <path d="M 60.743636 317.72 
L 63.978364 317.72 
L 63.978364 300.00456 
L 60.743636 300.00456 
z
" clip-path="url(#paf53dcc6e0)" style="fill: #1f77b4"/>
   </g>
   <g id="patch_4">
    <path d="M 63.978364 317.72 
L 67.213091 317.72 
L 67.213091 317.72 
L 63.978364 317.72 
z
" clip-path="url(#paf53dcc6e0)" style="fill: #1f77b4"/>
   </g>
   <g id="patch_5">
    <path d="M 67.213091 317.72 
L 70.447818 317.72 
L 70.447818 317.72 
L 67.213091 317.72 
z
" clip-path="url(#paf53dcc6e0)" style="fill: #1f77b4"/>
   </g>
   <g id="patch_6">
    <path d="M 70.447818 317.72 
L 73.682545 317.72 
L 73.682545 317.72 
L 70.447818 317.72 
z
" clip-path="url(#paf53dcc6e0)" style="fill: #1f77b4"/>
   </g>
   <g id="patch_7">
    <path d="M 73.682545 317.72 
L 76.917273 317.72 
L 76.917273 300.00456 
L 73.682545 300.00456 
z
" clip-path="url(#paf53dcc6e0)" style="fill: #1f77b4"/>
   </g>
   <g id="patch_8">
    <path d="M 76.917273 317.72 
L 80.152 317.72 
L 80.152 308.86228 
L 76.917273 308.86228 
z
" clip-path="url(#paf53dcc6e0)" style="fill: #1f77b4"/>
   </g>
   <g id="patch_9">
    <path d="M 80.152 317.72 
L 83.386727 317.72 
L 83.386727 317.72 
L 80.152 317.72 
z
" clip-path="url(#paf53dcc6e0)" style="fill: #1f77b4"/>
   </g>
   <g id="patch_10">
    <path d="M 83.386727 317.72 
L 86.621455 317.72 
L 86.621455 308.86228 
L 83.386727 308.86228 
z
" clip-path="url(#paf53dcc6e0)" style="fill: #1f77b4"/>
   </g>
   <g id="patch_11">
    <path d="M 86.621455 317.72 
L 89.856182 317.72 
L 89.856182 300.00456 
L 86.621455 300.00456 
z
" clip-path="url(#paf53dcc6e0)" style="fill: #1f77b4"/>
   </g>
   <g id="patch_12">
    <path d="M 89.856182 317.72 
L 93.090909 317.72 
L 93.090909 317.72 
L 89.856182 317.72 
z
" clip-path="url(#paf53dcc6e0)" style="fill: #1f77b4"/>
   </g>
   <g id="patch_13">
    <path d="M 93.090909 317.72 
L 96.325636 317.72 
L 96.325636 317.72 
L 93.090909 317.72 
z
" clip-path="url(#paf53dcc6e0)" style="fill: #1f77b4"/>
   </g>
   <g id="patch_14">
    <path d="M 96.325636 317.72 
L 99.560364 317.72 
L 99.560364 317.72 
L 96.325636 317.72 
z
" clip-path="url(#paf53dcc6e0)" style="fill: #1f77b4"/>
   </g>
   <g id="patch_15">
    <path d="M 99.560364 317.72 
L 102.795091 317.72 
L 102.795091 300.00456 
L 99.560364 300.00456 
z
" clip-path="url(#paf53dcc6e0)" style="fill: #1f77b4"/>
   </g>
   <g id="patch_16">
    <path d="M 102.795091 317.72 
L 106.029818 317.72 
L 106.029818 282.28912 
L 102.795091 282.28912 
z
" clip-path="url(#paf53dcc6e0)" style="fill: #1f77b4"/>
   </g>
   <g id="patch_17">
    <path d="M 106.029818 317.72 
L 109.264545 317.72 
L 109.264545 291.14684 
L 106.029818 291.14684 
z
" clip-path="url(#paf53dcc6e0)" style="fill: #1f77b4"/>
   </g>
   <g id="patch_18">
    <path d="M 109.264545 317.72 
L 112.499273 317.72 
L 112.499273 264.57368 
L 109.264545 264.57368 
z
" clip-path="url(#paf53dcc6e0)" style="fill: #1f77b4"/>
   </g>
   <g id="patch_19">
    <path d="M 112.499273 317.72 
L 115.734 317.72 
L 115.734 264.57368 
L 112.499273 264.57368 
z
" clip-path="url(#paf53dcc6e0)" style="fill: #1f77b4"/>
   </g>
   <g id="patch_20">
    <path d="M 115.734 317.72 
L 118.968727 317.72 
L 118.968727 291.14684 
L 115.734 291.14684 
z
" clip-path="url(#paf53dcc6e0)" style="fill: #1f77b4"/>
   </g>
   <g id="patch_21">
    <path d="M 118.968727 317.72 
L 122.203455 317.72 
L 122.203455 273.4314 
L 118.968727 273.4314 
z
" clip-path="url(#paf53dcc6e0)" style="fill: #1f77b4"/>
   </g>
   <g id="patch_22">
    <path d="M 122.203455 317.72 
L 125.438182 317.72 
L 125.438182 291.14684 
L 122.203455 291.14684 
z
" clip-path="url(#paf53dcc6e0)" style="fill: #1f77b4"/>
   </g>
   <g id="patch_23">
    <path d="M 125.438182 317.72 
L 128.672909 317.72 
L 128.672909 273.4314 
L 125.438182 273.4314 
z
" clip-path="url(#paf53dcc6e0)" style="fill: #1f77b4"/>
   </g>
   <g id="patch_24">
    <path d="M 128.672909 317.72 
L 131.907636 317.72 
L 131.907636 291.14684 
L 128.672909 291.14684 
z
" clip-path="url(#paf53dcc6e0)" style="fill: #1f77b4"/>
   </g>
   <g id="patch_25">
    <path d="M 131.907636 317.72 
L 135.142364 317.72 
L 135.142364 264.57368 
L 131.907636 264.57368 
z
" clip-path="url(#paf53dcc6e0)" style="fill: #1f77b4"/>
   </g>
   <g id="patch_26">
    <path d="M 135.142364 317.72 
L 138.377091 317.72 
L 138.377091 246.85824 
L 135.142364 246.85824 
z
" clip-path="url(#paf53dcc6e0)" style="fill: #1f77b4"/>
   </g>
   <g id="patch_27">
    <path d="M 138.377091 317.72 
L 141.611818 317.72 
L 141.611818 255.71596 
L 138.377091 255.71596 
z
" clip-path="url(#paf53dcc6e0)" style="fill: #1f77b4"/>
   </g>
   <g id="patch_28">
    <path d="M 141.611818 317.72 
L 144.846545 317.72 
L 144.846545 255.71596 
L 141.611818 255.71596 
z
" clip-path="url(#paf53dcc6e0)" style="fill: #1f77b4"/>
   </g>
   <g id="patch_29">
    <path d="M 144.846545 317.72 
L 148.081273 317.72 
L 148.081273 238.000519 
L 144.846545 238.000519 
z
" clip-path="url(#paf53dcc6e0)" style="fill: #1f77b4"/>
   </g>
   <g id="patch_30">
    <path d="M 148.081273 317.72 
L 151.316 317.72 
L 151.316 255.71596 
L 148.081273 255.71596 
z
" clip-path="url(#paf53dcc6e0)" style="fill: #1f77b4"/>
   </g>
   <g id="patch_31">
    <path d="M 151.316 317.72 
L 154.550727 317.72 
L 154.550727 238.000519 
L 151.316 238.000519 
z
" clip-path="url(#paf53dcc6e0)" style="fill: #1f77b4"/>
   </g>
   <g id="patch_32">
    <path d="M 154.550727 317.72 
L 157.785455 317.72 
L 157.785455 211.427359 
L 154.550727 211.427359 
z
" clip-path="url(#paf53dcc6e0)" style="fill: #1f77b4"/>
   </g>
   <g id="patch_33">
    <path d="M 157.785455 317.72 
L 161.020182 317.72 
L 161.020182 220.285079 
L 157.785455 220.285079 
z
" clip-path="url(#paf53dcc6e0)" style="fill: #1f77b4"/>
   </g>
   <g id="patch_34">
    <path d="M 161.020182 317.72 
L 164.254909 317.72 
L 164.254909 167.138759 
L 161.020182 167.138759 
z
" clip-path="url(#paf53dcc6e0)" style="fill: #1f77b4"/>
   </g>
   <g id="patch_35">
    <path d="M 164.254909 317.72 
L 167.489636 317.72 
L 167.489636 131.707879 
L 164.254909 131.707879 
z
" clip-path="url(#paf53dcc6e0)" style="fill: #1f77b4"/>
   </g>
   <g id="patch_36">
    <path d="M 167.489636 317.72 
L 170.724364 317.72 
L 170.724364 211.427359 
L 167.489636 211.427359 
z
" clip-path="url(#paf53dcc6e0)" style="fill: #1f77b4"/>
   </g>
   <g id="patch_37">
    <path d="M 170.724364 317.72 
L 173.959091 317.72 
L 173.959091 184.854199 
L 170.724364 184.854199 
z
" clip-path="url(#paf53dcc6e0)" style="fill: #1f77b4"/>
   </g>
   <g id="patch_38">
    <path d="M 173.959091 317.72 
L 177.193818 317.72 
L 177.193818 158.281039 
L 173.959091 158.281039 
z
" clip-path="url(#paf53dcc6e0)" style="fill: #1f77b4"/>
   </g>
   <g id="patch_39">
    <path d="M 177.193818 317.72 
L 180.428545 317.72 
L 180.428545 167.138759 
L 177.193818 167.138759 
z
" clip-path="url(#paf53dcc6e0)" style="fill: #1f77b4"/>
   </g>
   <g id="patch_40">
    <path d="M 180.428545 317.72 
L 183.663273 317.72 
L 183.663273 149.423319 
L 180.428545 149.423319 
z
" clip-path="url(#paf53dcc6e0)" style="fill: #1f77b4"/>
   </g>
   <g id="patch_41">
    <path d="M 183.663273 317.72 
L 186.898 317.72 
L 186.898 131.707879 
L 183.663273 131.707879 
z
" clip-path="url(#paf53dcc6e0)" style="fill: #1f77b4"/>
   </g>
   <g id="patch_42">
    <path d="M 186.898 317.72 
L 190.132727 317.72 
L 190.132727 193.711919 
L 186.898 193.711919 
z
" clip-path="url(#paf53dcc6e0)" style="fill: #1f77b4"/>
   </g>
   <g id="patch_43">
    <path d="M 190.132727 317.72 
L 193.367455 317.72 
L 193.367455 113.992439 
L 190.132727 113.992439 
z
" clip-path="url(#paf53dcc6e0)" style="fill: #1f77b4"/>
   </g>
   <g id="patch_44">
    <path d="M 193.367455 317.72 
L 196.602182 317.72 
L 196.602182 131.707879 
L 193.367455 131.707879 
z
" clip-path="url(#paf53dcc6e0)" style="fill: #1f77b4"/>
   </g>
   <g id="patch_45">
    <path d="M 196.602182 317.72 
L 199.836909 317.72 
L 199.836909 131.707879 
L 196.602182 131.707879 
z
" clip-path="url(#paf53dcc6e0)" style="fill: #1f77b4"/>
   </g>
   <g id="patch_46">
    <path d="M 199.836909 317.72 
L 203.071636 317.72 
L 203.071636 113.992439 
L 199.836909 113.992439 
z
" clip-path="url(#paf53dcc6e0)" style="fill: #1f77b4"/>
   </g>
   <g id="patch_47">
    <path d="M 203.071636 317.72 
L 206.306364 317.72 
L 206.306364 78.561558 
L 203.071636 78.561558 
z
" clip-path="url(#paf53dcc6e0)" style="fill: #1f77b4"/>
   </g>
   <g id="patch_48">
    <path d="M 206.306364 317.72 
L 209.541091 317.72 
L 209.541091 184.854199 
L 206.306364 184.854199 
z
" clip-path="url(#paf53dcc6e0)" style="fill: #1f77b4"/>
   </g>
   <g id="patch_49">
    <path d="M 209.541091 317.72 
L 212.775818 317.72 
L 212.775818 105.134719 
L 209.541091 105.134719 
z
" clip-path="url(#paf53dcc6e0)" style="fill: #1f77b4"/>
   </g>
   <g id="patch_50">
    <path d="M 212.775818 317.72 
L 216.010545 317.72 
L 216.010545 87.419278 
L 212.775818 87.419278 
z
" clip-path="url(#paf53dcc6e0)" style="fill: #1f77b4"/>
   </g>
   <g id="patch_51">
    <path d="M 216.010545 317.72 
L 219.245273 317.72 
L 219.245273 105.134719 
L 216.010545 105.134719 
z
" clip-path="url(#paf53dcc6e0)" style="fill: #1f77b4"/>
   </g>
   <g id="patch_52">
    <path d="M 219.245273 317.72 
L 222.48 317.72 
L 222.48 105.134719 
L 219.245273 105.134719 
z
" clip-path="url(#paf53dcc6e0)" style="fill: #1f77b4"/>
   </g>
   <g id="patch_53">
    <path d="M 222.48 317.72 
L 225.714727 317.72 
L 225.714727 131.707879 
L 222.48 131.707879 
z
" clip-path="url(#paf53dcc6e0)" style="fill: #1f77b4"/>
   </g>
   <g id="patch_54">
    <path d="M 225.714727 317.72 
L 228.949455 317.72 
L 228.949455 113.992439 
L 225.714727 113.992439 
z
" clip-path="url(#paf53dcc6e0)" style="fill: #1f77b4"/>
   </g>
   <g id="patch_55">
    <path d="M 228.949455 317.72 
L 232.184182 317.72 
L 232.184182 113.992439 
L 228.949455 113.992439 
z
" clip-path="url(#paf53dcc6e0)" style="fill: #1f77b4"/>
   </g>
   <g id="patch_56">
    <path d="M 232.184182 317.72 
L 235.418909 317.72 
L 235.418909 149.423319 
L 232.184182 149.423319 
z
" clip-path="url(#paf53dcc6e0)" style="fill: #1f77b4"/>
   </g>
   <g id="patch_57">
    <path d="M 235.418909 317.72 
L 238.653636 317.72 
L 238.653636 25.415238 
L 235.418909 25.415238 
z
" clip-path="url(#paf53dcc6e0)" style="fill: #1f77b4"/>
   </g>
   <g id="patch_58">
    <path d="M 238.653636 317.72 
L 241.888364 317.72 
L 241.888364 122.850159 
L 238.653636 122.850159 
z
" clip-path="url(#paf53dcc6e0)" style="fill: #1f77b4"/>
   </g>
   <g id="patch_59">
    <path d="M 241.888364 317.72 
L 245.123091 317.72 
L 245.123091 87.419278 
L 241.888364 87.419278 
z
" clip-path="url(#paf53dcc6e0)" style="fill: #1f77b4"/>
   </g>
   <g id="patch_60">
    <path d="M 245.123091 317.72 
L 248.357818 317.72 
L 248.357818 105.134719 
L 245.123091 105.134719 
z
" clip-path="url(#paf53dcc6e0)" style="fill: #1f77b4"/>
   </g>
   <g id="patch_61">
    <path d="M 248.357818 317.72 
L 251.592545 317.72 
L 251.592545 193.711919 
L 248.357818 193.711919 
z
" clip-path="url(#paf53dcc6e0)" style="fill: #1f77b4"/>
   </g>
   <g id="patch_62">
    <path d="M 251.592545 317.72 
L 254.827273 317.72 
L 254.827273 158.281039 
L 251.592545 158.281039 
z
" clip-path="url(#paf53dcc6e0)" style="fill: #1f77b4"/>
   </g>
   <g id="patch_63">
    <path d="M 254.827273 317.72 
L 258.062 317.72 
L 258.062 167.138759 
L 254.827273 167.138759 
z
" clip-path="url(#paf53dcc6e0)" style="fill: #1f77b4"/>
   </g>
   <g id="patch_64">
    <path d="M 258.062 317.72 
L 261.296727 317.72 
L 261.296727 140.565599 
L 258.062 140.565599 
z
" clip-path="url(#paf53dcc6e0)" style="fill: #1f77b4"/>
   </g>
   <g id="patch_65">
    <path d="M 261.296727 317.72 
L 264.531455 317.72 
L 264.531455 122.850159 
L 261.296727 122.850159 
z
" clip-path="url(#paf53dcc6e0)" style="fill: #1f77b4"/>
   </g>
   <g id="patch_66">
    <path d="M 264.531455 317.72 
L 267.766182 317.72 
L 267.766182 158.281039 
L 264.531455 158.281039 
z
" clip-path="url(#paf53dcc6e0)" style="fill: #1f77b4"/>
   </g>
   <g id="patch_67">
    <path d="M 267.766182 317.72 
L 271.000909 317.72 
L 271.000909 238.000519 
L 267.766182 238.000519 
z
" clip-path="url(#paf53dcc6e0)" style="fill: #1f77b4"/>
   </g>
   <g id="patch_68">
    <path d="M 271.000909 317.72 
L 274.235636 317.72 
L 274.235636 184.854199 
L 271.000909 184.854199 
z
" clip-path="url(#paf53dcc6e0)" style="fill: #1f77b4"/>
   </g>
   <g id="patch_69">
    <path d="M 274.235636 317.72 
L 277.470364 317.72 
L 277.470364 113.992439 
L 274.235636 113.992439 
z
" clip-path="url(#paf53dcc6e0)" style="fill: #1f77b4"/>
   </g>
   <g id="patch_70">
    <path d="M 277.470364 317.72 
L 280.705091 317.72 
L 280.705091 167.138759 
L 277.470364 167.138759 
z
" clip-path="url(#paf53dcc6e0)" style="fill: #1f77b4"/>
   </g>
   <g id="patch_71">
    <path d="M 280.705091 317.72 
L 283.939818 317.72 
L 283.939818 246.85824 
L 280.705091 246.85824 
z
" clip-path="url(#paf53dcc6e0)" style="fill: #1f77b4"/>
   </g>
   <g id="patch_72">
    <path d="M 283.939818 317.72 
L 287.174545 317.72 
L 287.174545 149.423319 
L 283.939818 149.423319 
z
" clip-path="url(#paf53dcc6e0)" style="fill: #1f77b4"/>
   </g>
   <g id="patch_73">
    <path d="M 287.174545 317.72 
L 290.409273 317.72 
L 290.409273 264.57368 
L 287.174545 264.57368 
z
" clip-path="url(#paf53dcc6e0)" style="fill: #1f77b4"/>
   </g>
   <g id="patch_74">
    <path d="M 290.409273 317.72 
L 293.644 317.72 
L 293.644 229.142799 
L 290.409273 229.142799 
z
" clip-path="url(#paf53dcc6e0)" style="fill: #1f77b4"/>
   </g>
   <g id="patch_75">
    <path d="M 293.644 317.72 
L 296.878727 317.72 
L 296.878727 229.142799 
L 293.644 229.142799 
z
" clip-path="url(#paf53dcc6e0)" style="fill: #1f77b4"/>
   </g>
   <g id="patch_76">
    <path d="M 296.878727 317.72 
L 300.113455 317.72 
L 300.113455 255.71596 
L 296.878727 255.71596 
z
" clip-path="url(#paf53dcc6e0)" style="fill: #1f77b4"/>
   </g>
   <g id="patch_77">
    <path d="M 300.113455 317.72 
L 303.348182 317.72 
L 303.348182 255.71596 
L 300.113455 255.71596 
z
" clip-path="url(#paf53dcc6e0)" style="fill: #1f77b4"/>
   </g>
   <g id="patch_78">
    <path d="M 303.348182 317.72 
L 306.582909 317.72 
L 306.582909 238.000519 
L 303.348182 238.000519 
z
" clip-path="url(#paf53dcc6e0)" style="fill: #1f77b4"/>
   </g>
   <g id="patch_79">
    <path d="M 306.582909 317.72 
L 309.817636 317.72 
L 309.817636 264.57368 
L 306.582909 264.57368 
z
" clip-path="url(#paf53dcc6e0)" style="fill: #1f77b4"/>
   </g>
   <g id="patch_80">
    <path d="M 309.817636 317.72 
L 313.052364 317.72 
L 313.052364 273.4314 
L 309.817636 273.4314 
z
" clip-path="url(#paf53dcc6e0)" style="fill: #1f77b4"/>
   </g>
   <g id="patch_81">
    <path d="M 313.052364 317.72 
L 316.287091 317.72 
L 316.287091 308.86228 
L 313.052364 308.86228 
z
" clip-path="url(#paf53dcc6e0)" style="fill: #1f77b4"/>
   </g>
   <g id="patch_82">
    <path d="M 316.287091 317.72 
L 319.521818 317.72 
L 319.521818 255.71596 
L 316.287091 255.71596 
z
" clip-path="url(#paf53dcc6e0)" style="fill: #1f77b4"/>
   </g>
   <g id="patch_83">
    <path d="M 319.521818 317.72 
L 322.756545 317.72 
L 322.756545 282.28912 
L 319.521818 282.28912 
z
" clip-path="url(#paf53dcc6e0)" style="fill: #1f77b4"/>
   </g>
   <g id="patch_84">
    <path d="M 322.756545 317.72 
L 325.991273 317.72 
L 325.991273 291.14684 
L 322.756545 291.14684 
z
" clip-path="url(#paf53dcc6e0)" style="fill: #1f77b4"/>
   </g>
   <g id="patch_85">
    <path d="M 325.991273 317.72 
L 329.226 317.72 
L 329.226 291.14684 
L 325.991273 291.14684 
z
" clip-path="url(#paf53dcc6e0)" style="fill: #1f77b4"/>
   </g>
   <g id="patch_86">
    <path d="M 329.226 317.72 
L 332.460727 317.72 
L 332.460727 300.00456 
L 329.226 300.00456 
z
" clip-path="url(#paf53dcc6e0)" style="fill: #1f77b4"/>
   </g>
   <g id="patch_87">
    <path d="M 332.460727 317.72 
L 335.695455 317.72 
L 335.695455 300.00456 
L 332.460727 300.00456 
z
" clip-path="url(#paf53dcc6e0)" style="fill: #1f77b4"/>
   </g>
   <g id="patch_88">
    <path d="M 335.695455 317.72 
L 338.930182 317.72 
L 338.930182 291.14684 
L 335.695455 291.14684 
z
" clip-path="url(#paf53dcc6e0)" style="fill: #1f77b4"/>
   </g>
   <g id="patch_89">
    <path d="M 338.930182 317.72 
L 342.164909 317.72 
L 342.164909 308.86228 
L 338.930182 308.86228 
z
" clip-path="url(#paf53dcc6e0)" style="fill: #1f77b4"/>
   </g>
   <g id="patch_90">
    <path d="M 342.164909 317.72 
L 345.399636 317.72 
L 345.399636 308.86228 
L 342.164909 308.86228 
z
" clip-path="url(#paf53dcc6e0)" style="fill: #1f77b4"/>
   </g>
   <g id="patch_91">
    <path d="M 345.399636 317.72 
L 348.634364 317.72 
L 348.634364 291.14684 
L 345.399636 291.14684 
z
" clip-path="url(#paf53dcc6e0)" style="fill: #1f77b4"/>
   </g>
   <g id="patch_92">
    <path d="M 348.634364 317.72 
L 351.869091 317.72 
L 351.869091 300.00456 
L 348.634364 300.00456 
z
" clip-path="url(#paf53dcc6e0)" style="fill: #1f77b4"/>
   </g>
   <g id="patch_93">
    <path d="M 351.869091 317.72 
L 355.103818 317.72 
L 355.103818 282.28912 
L 351.869091 282.28912 
z
" clip-path="url(#paf53dcc6e0)" style="fill: #1f77b4"/>
   </g>
   <g id="patch_94">
    <path d="M 355.103818 317.72 
L 358.338545 317.72 
L 358.338545 308.86228 
L 355.103818 308.86228 
z
" clip-path="url(#paf53dcc6e0)" style="fill: #1f77b4"/>
   </g>
   <g id="patch_95">
    <path d="M 358.338545 317.72 
L 361.573273 317.72 
L 361.573273 308.86228 
L 358.338545 308.86228 
z
" clip-path="url(#paf53dcc6e0)" style="fill: #1f77b4"/>
   </g>
   <g id="patch_96">
    <path d="M 361.573273 317.72 
L 364.808 317.72 
L 364.808 317.72 
L 361.573273 317.72 
z
" clip-path="url(#paf53dcc6e0)" style="fill: #1f77b4"/>
   </g>
   <g id="patch_97">
    <path d="M 364.808 317.72 
L 368.042727 317.72 
L 368.042727 300.00456 
L 364.808 300.00456 
z
" clip-path="url(#paf53dcc6e0)" style="fill: #1f77b4"/>
   </g>
   <g id="patch_98">
    <path d="M 368.042727 317.72 
L 371.277455 317.72 
L 371.277455 308.86228 
L 368.042727 308.86228 
z
" clip-path="url(#paf53dcc6e0)" style="fill: #1f77b4"/>
   </g>
   <g id="patch_99">
    <path d="M 371.277455 317.72 
L 374.512182 317.72 
L 374.512182 308.86228 
L 371.277455 308.86228 
z
" clip-path="url(#paf53dcc6e0)" style="fill: #1f77b4"/>
   </g>
   <g id="patch_100">
    <path d="M 374.512182 317.72 
L 377.746909 317.72 
L 377.746909 317.72 
L 374.512182 317.72 
z
" clip-path="url(#paf53dcc6e0)" style="fill: #1f77b4"/>
   </g>
   <g id="patch_101">
    <path d="M 377.746909 317.72 
L 380.981636 317.72 
L 380.981636 317.72 
L 377.746909 317.72 
z
" clip-path="url(#paf53dcc6e0)" style="fill: #1f77b4"/>
   </g>
   <g id="patch_102">
    <path d="M 380.981636 317.72 
L 384.216364 317.72 
L 384.216364 308.86228 
L 380.981636 308.86228 
z
" clip-path="url(#paf53dcc6e0)" style="fill: #1f77b4"/>
   </g>
   <g id="matplotlib.axis_1">
    <g id="xtick_1">
     <g id="line2d_1">
      <defs>
       <path id="m1aa50c4935" d="M 0 0 
L 0 3.5 
" style="stroke: #000000; stroke-width: 0.8"/>
      </defs>
      <g>
       <use xlink:href="#m1aa50c4935" x="58.136245" y="317.72" style="stroke: #000000; stroke-width: 0.8"/>
      </g>
     </g>
     <g id="text_1">
      <!-- −0.3 -->
      <g transform="translate(45.994838 332.318437)scale(0.1 -0.1)">
       <defs>
        <path id="DejaVuSans-2212" d="M 678 2272 
L 4684 2272 
L 4684 1741 
L 678 1741 
L 678 2272 
z
" transform="scale(0.015625)"/>
        <path id="DejaVuSans-30" d="M 2034 4250 
Q 1547 4250 1301 3770 
Q 1056 3291 1056 2328 
Q 1056 1369 1301 889 
Q 1547 409 2034 409 
Q 2525 409 2770 889 
Q 3016 1369 3016 2328 
Q 3016 3291 2770 3770 
Q 2525 4250 2034 4250 
z
M 2034 4750 
Q 2819 4750 3233 4129 
Q 3647 3509 3647 2328 
Q 3647 1150 3233 529 
Q 2819 -91 2034 -91 
Q 1250 -91 836 529 
Q 422 1150 422 2328 
Q 422 3509 836 4129 
Q 1250 4750 2034 4750 
z
" transform="scale(0.015625)"/>
        <path id="DejaVuSans-2e" d="M 684 794 
L 1344 794 
L 1344 0 
L 684 0 
L 684 794 
z
" transform="scale(0.015625)"/>
        <path id="DejaVuSans-33" d="M 2597 2516 
Q 3050 2419 3304 2112 
Q 3559 1806 3559 1356 
Q 3559 666 3084 287 
Q 2609 -91 1734 -91 
Q 1441 -91 1130 -33 
Q 819 25 488 141 
L 488 750 
Q 750 597 1062 519 
Q 1375 441 1716 441 
Q 2309 441 2620 675 
Q 2931 909 2931 1356 
Q 2931 1769 2642 2001 
Q 2353 2234 1838 2234 
L 1294 2234 
L 1294 2753 
L 1863 2753 
Q 2328 2753 2575 2939 
Q 2822 3125 2822 3475 
Q 2822 3834 2567 4026 
Q 2313 4219 1838 4219 
Q 1578 4219 1281 4162 
Q 984 4106 628 3988 
L 628 4550 
Q 988 4650 1302 4700 
Q 1616 4750 1894 4750 
Q 2613 4750 3031 4423 
Q 3450 4097 3450 3541 
Q 3450 3153 3228 2886 
Q 3006 2619 2597 2516 
z
" transform="scale(0.015625)"/>
       </defs>
       <use xlink:href="#DejaVuSans-2212"/>
       <use xlink:href="#DejaVuSans-30" x="83.789062"/>
       <use xlink:href="#DejaVuSans-2e" x="147.412109"/>
       <use xlink:href="#DejaVuSans-33" x="179.199219"/>
      </g>
     </g>
    </g>
    <g id="xtick_2">
     <g id="line2d_2">
      <g>
       <use xlink:href="#m1aa50c4935" x="112.720859" y="317.72" style="stroke: #000000; stroke-width: 0.8"/>
      </g>
     </g>
     <g id="text_2">
      <!-- −0.2 -->
      <g transform="translate(100.579452 332.318437)scale(0.1 -0.1)">
       <defs>
        <path id="DejaVuSans-32" d="M 1228 531 
L 3431 531 
L 3431 0 
L 469 0 
L 469 531 
Q 828 903 1448 1529 
Q 2069 2156 2228 2338 
Q 2531 2678 2651 2914 
Q 2772 3150 2772 3378 
Q 2772 3750 2511 3984 
Q 2250 4219 1831 4219 
Q 1534 4219 1204 4116 
Q 875 4013 500 3803 
L 500 4441 
Q 881 4594 1212 4672 
Q 1544 4750 1819 4750 
Q 2544 4750 2975 4387 
Q 3406 4025 3406 3419 
Q 3406 3131 3298 2873 
Q 3191 2616 2906 2266 
Q 2828 2175 2409 1742 
Q 1991 1309 1228 531 
z
" transform="scale(0.015625)"/>
       </defs>
       <use xlink:href="#DejaVuSans-2212"/>
       <use xlink:href="#DejaVuSans-30" x="83.789062"/>
       <use xlink:href="#DejaVuSans-2e" x="147.412109"/>
       <use xlink:href="#DejaVuSans-32" x="179.199219"/>
      </g>
     </g>
    </g>
    <g id="xtick_3">
     <g id="line2d_3">
      <g>
       <use xlink:href="#m1aa50c4935" x="167.305473" y="317.72" style="stroke: #000000; stroke-width: 0.8"/>
      </g>
     </g>
     <g id="text_3">
      <!-- −0.1 -->
      <g transform="translate(155.164067 332.318437)scale(0.1 -0.1)">
       <defs>
        <path id="DejaVuSans-31" d="M 794 531 
L 1825 531 
L 1825 4091 
L 703 3866 
L 703 4441 
L 1819 4666 
L 2450 4666 
L 2450 531 
L 3481 531 
L 3481 0 
L 794 0 
L 794 531 
z
" transform="scale(0.015625)"/>
       </defs>
       <use xlink:href="#DejaVuSans-2212"/>
       <use xlink:href="#DejaVuSans-30" x="83.789062"/>
       <use xlink:href="#DejaVuSans-2e" x="147.412109"/>
       <use xlink:href="#DejaVuSans-31" x="179.199219"/>
      </g>
     </g>
    </g>
    <g id="xtick_4">
     <g id="line2d_4">
      <g>
       <use xlink:href="#m1aa50c4935" x="221.890087" y="317.72" style="stroke: #000000; stroke-width: 0.8"/>
      </g>
     </g>
     <g id="text_4">
      <!-- 0.0 -->
      <g transform="translate(213.938524 332.318437)scale(0.1 -0.1)">
       <use xlink:href="#DejaVuSans-30"/>
       <use xlink:href="#DejaVuSans-2e" x="63.623047"/>
       <use xlink:href="#DejaVuSans-30" x="95.410156"/>
      </g>
     </g>
    </g>
    <g id="xtick_5">
     <g id="line2d_5">
      <g>
       <use xlink:href="#m1aa50c4935" x="276.474701" y="317.72" style="stroke: #000000; stroke-width: 0.8"/>
      </g>
     </g>
     <g id="text_5">
      <!-- 0.1 -->
      <g transform="translate(268.523139 332.318437)scale(0.1 -0.1)">
       <use xlink:href="#DejaVuSans-30"/>
       <use xlink:href="#DejaVuSans-2e" x="63.623047"/>
       <use xlink:href="#DejaVuSans-31" x="95.410156"/>
      </g>
     </g>
    </g>
    <g id="xtick_6">
     <g id="line2d_6">
      <g>
       <use xlink:href="#m1aa50c4935" x="331.059315" y="317.72" style="stroke: #000000; stroke-width: 0.8"/>
      </g>
     </g>
     <g id="text_6">
      <!-- 0.2 -->
      <g transform="translate(323.107753 332.318437)scale(0.1 -0.1)">
       <use xlink:href="#DejaVuSans-30"/>
       <use xlink:href="#DejaVuSans-2e" x="63.623047"/>
       <use xlink:href="#DejaVuSans-32" x="95.410156"/>
      </g>
     </g>
    </g>
    <g id="xtick_7">
     <g id="line2d_7">
      <g>
       <use xlink:href="#m1aa50c4935" x="385.643929" y="317.72" style="stroke: #000000; stroke-width: 0.8"/>
      </g>
     </g>
     <g id="text_7">
      <!-- 0.3 -->
      <g transform="translate(377.692367 332.318437)scale(0.1 -0.1)">
       <use xlink:href="#DejaVuSans-30"/>
       <use xlink:href="#DejaVuSans-2e" x="63.623047"/>
       <use xlink:href="#DejaVuSans-33" x="95.410156"/>
      </g>
     </g>
    </g>
   </g>
   <g id="matplotlib.axis_2">
    <g id="ytick_1">
     <g id="line2d_8">
      <defs>
       <path id="meb3d92cb93" d="M 0 0 
L -3.5 0 
" style="stroke: #000000; stroke-width: 0.8"/>
      </defs>
      <g>
       <use xlink:href="#meb3d92cb93" x="44.57" y="317.72" style="stroke: #000000; stroke-width: 0.8"/>
      </g>
     </g>
     <g id="text_8">
      <!-- 0 -->
      <g transform="translate(31.2075 321.519219)scale(0.1 -0.1)">
       <use xlink:href="#DejaVuSans-30"/>
      </g>
     </g>
    </g>
    <g id="ytick_2">
     <g id="line2d_9">
      <g>
       <use xlink:href="#meb3d92cb93" x="44.57" y="273.4314" style="stroke: #000000; stroke-width: 0.8"/>
      </g>
     </g>
     <g id="text_9">
      <!-- 5 -->
      <g transform="translate(31.2075 277.230618)scale(0.1 -0.1)">
       <defs>
        <path id="DejaVuSans-35" d="M 691 4666 
L 3169 4666 
L 3169 4134 
L 1269 4134 
L 1269 2991 
Q 1406 3038 1543 3061 
Q 1681 3084 1819 3084 
Q 2600 3084 3056 2656 
Q 3513 2228 3513 1497 
Q 3513 744 3044 326 
Q 2575 -91 1722 -91 
Q 1428 -91 1123 -41 
Q 819 9 494 109 
L 494 744 
Q 775 591 1075 516 
Q 1375 441 1709 441 
Q 2250 441 2565 725 
Q 2881 1009 2881 1497 
Q 2881 1984 2565 2268 
Q 2250 2553 1709 2553 
Q 1456 2553 1204 2497 
Q 953 2441 691 2322 
L 691 4666 
z
" transform="scale(0.015625)"/>
       </defs>
       <use xlink:href="#DejaVuSans-35"/>
      </g>
     </g>
    </g>
    <g id="ytick_3">
     <g id="line2d_10">
      <g>
       <use xlink:href="#meb3d92cb93" x="44.57" y="229.142799" style="stroke: #000000; stroke-width: 0.8"/>
      </g>
     </g>
     <g id="text_10">
      <!-- 10 -->
      <g transform="translate(24.845 232.942018)scale(0.1 -0.1)">
       <use xlink:href="#DejaVuSans-31"/>
       <use xlink:href="#DejaVuSans-30" x="63.623047"/>
      </g>
     </g>
    </g>
    <g id="ytick_4">
     <g id="line2d_11">
      <g>
       <use xlink:href="#meb3d92cb93" x="44.57" y="184.854199" style="stroke: #000000; stroke-width: 0.8"/>
      </g>
     </g>
     <g id="text_11">
      <!-- 15 -->
      <g transform="translate(24.845 188.653418)scale(0.1 -0.1)">
       <use xlink:href="#DejaVuSans-31"/>
       <use xlink:href="#DejaVuSans-35" x="63.623047"/>
      </g>
     </g>
    </g>
    <g id="ytick_5">
     <g id="line2d_12">
      <g>
       <use xlink:href="#meb3d92cb93" x="44.57" y="140.565599" style="stroke: #000000; stroke-width: 0.8"/>
      </g>
     </g>
     <g id="text_12">
      <!-- 20 -->
      <g transform="translate(24.845 144.364818)scale(0.1 -0.1)">
       <use xlink:href="#DejaVuSans-32"/>
       <use xlink:href="#DejaVuSans-30" x="63.623047"/>
      </g>
     </g>
    </g>
    <g id="ytick_6">
     <g id="line2d_13">
      <g>
       <use xlink:href="#meb3d92cb93" x="44.57" y="96.276999" style="stroke: #000000; stroke-width: 0.8"/>
      </g>
     </g>
     <g id="text_13">
      <!-- 25 -->
      <g transform="translate(24.845 100.076217)scale(0.1 -0.1)">
       <use xlink:href="#DejaVuSans-32"/>
       <use xlink:href="#DejaVuSans-35" x="63.623047"/>
      </g>
     </g>
    </g>
    <g id="ytick_7">
     <g id="line2d_14">
      <g>
       <use xlink:href="#meb3d92cb93" x="44.57" y="51.988398" style="stroke: #000000; stroke-width: 0.8"/>
      </g>
     </g>
     <g id="text_14">
      <!-- 30 -->
      <g transform="translate(24.845 55.787617)scale(0.1 -0.1)">
       <use xlink:href="#DejaVuSans-33"/>
       <use xlink:href="#DejaVuSans-30" x="63.623047"/>
      </g>
     </g>
    </g>
    <g id="text_15">
     <!-- histogram -->
     <g transform="translate(18.765313 189.606094)rotate(-90)scale(0.1 -0.1)">
      <defs>
       <path id="DejaVuSans-68" d="M 3513 2113 
L 3513 0 
L 2938 0 
L 2938 2094 
Q 2938 2591 2744 2837 
Q 2550 3084 2163 3084 
Q 1697 3084 1428 2787 
Q 1159 2491 1159 1978 
L 1159 0 
L 581 0 
L 581 4863 
L 1159 4863 
L 1159 2956 
Q 1366 3272 1645 3428 
Q 1925 3584 2291 3584 
Q 2894 3584 3203 3211 
Q 3513 2838 3513 2113 
z
" transform="scale(0.015625)"/>
       <path id="DejaVuSans-69" d="M 603 3500 
L 1178 3500 
L 1178 0 
L 603 0 
L 603 3500 
z
M 603 4863 
L 1178 4863 
L 1178 4134 
L 603 4134 
L 603 4863 
z
" transform="scale(0.015625)"/>
       <path id="DejaVuSans-73" d="M 2834 3397 
L 2834 2853 
Q 2591 2978 2328 3040 
Q 2066 3103 1784 3103 
Q 1356 3103 1142 2972 
Q 928 2841 928 2578 
Q 928 2378 1081 2264 
Q 1234 2150 1697 2047 
L 1894 2003 
Q 2506 1872 2764 1633 
Q 3022 1394 3022 966 
Q 3022 478 2636 193 
Q 2250 -91 1575 -91 
Q 1294 -91 989 -36 
Q 684 19 347 128 
L 347 722 
Q 666 556 975 473 
Q 1284 391 1588 391 
Q 1994 391 2212 530 
Q 2431 669 2431 922 
Q 2431 1156 2273 1281 
Q 2116 1406 1581 1522 
L 1381 1569 
Q 847 1681 609 1914 
Q 372 2147 372 2553 
Q 372 3047 722 3315 
Q 1072 3584 1716 3584 
Q 2034 3584 2315 3537 
Q 2597 3491 2834 3397 
z
" transform="scale(0.015625)"/>
       <path id="DejaVuSans-74" d="M 1172 4494 
L 1172 3500 
L 2356 3500 
L 2356 3053 
L 1172 3053 
L 1172 1153 
Q 1172 725 1289 603 
Q 1406 481 1766 481 
L 2356 481 
L 2356 0 
L 1766 0 
Q 1100 0 847 248 
Q 594 497 594 1153 
L 594 3053 
L 172 3053 
L 172 3500 
L 594 3500 
L 594 4494 
L 1172 4494 
z
" transform="scale(0.015625)"/>
       <path id="DejaVuSans-6f" d="M 1959 3097 
Q 1497 3097 1228 2736 
Q 959 2375 959 1747 
Q 959 1119 1226 758 
Q 1494 397 1959 397 
Q 2419 397 2687 759 
Q 2956 1122 2956 1747 
Q 2956 2369 2687 2733 
Q 2419 3097 1959 3097 
z
M 1959 3584 
Q 2709 3584 3137 3096 
Q 3566 2609 3566 1747 
Q 3566 888 3137 398 
Q 2709 -91 1959 -91 
Q 1206 -91 779 398 
Q 353 888 353 1747 
Q 353 2609 779 3096 
Q 1206 3584 1959 3584 
z
" transform="scale(0.015625)"/>
       <path id="DejaVuSans-67" d="M 2906 1791 
Q 2906 2416 2648 2759 
Q 2391 3103 1925 3103 
Q 1463 3103 1205 2759 
Q 947 2416 947 1791 
Q 947 1169 1205 825 
Q 1463 481 1925 481 
Q 2391 481 2648 825 
Q 2906 1169 2906 1791 
z
M 3481 434 
Q 3481 -459 3084 -895 
Q 2688 -1331 1869 -1331 
Q 1566 -1331 1297 -1286 
Q 1028 -1241 775 -1147 
L 775 -588 
Q 1028 -725 1275 -790 
Q 1522 -856 1778 -856 
Q 2344 -856 2625 -561 
Q 2906 -266 2906 331 
L 2906 616 
Q 2728 306 2450 153 
Q 2172 0 1784 0 
Q 1141 0 747 490 
Q 353 981 353 1791 
Q 353 2603 747 3093 
Q 1141 3584 1784 3584 
Q 2172 3584 2450 3431 
Q 2728 3278 2906 2969 
L 2906 3500 
L 3481 3500 
L 3481 434 
z
" transform="scale(0.015625)"/>
       <path id="DejaVuSans-72" d="M 2631 2963 
Q 2534 3019 2420 3045 
Q 2306 3072 2169 3072 
Q 1681 3072 1420 2755 
Q 1159 2438 1159 1844 
L 1159 0 
L 581 0 
L 581 3500 
L 1159 3500 
L 1159 2956 
Q 1341 3275 1631 3429 
Q 1922 3584 2338 3584 
Q 2397 3584 2469 3576 
Q 2541 3569 2628 3553 
L 2631 2963 
z
" transform="scale(0.015625)"/>
       <path id="DejaVuSans-61" d="M 2194 1759 
Q 1497 1759 1228 1600 
Q 959 1441 959 1056 
Q 959 750 1161 570 
Q 1363 391 1709 391 
Q 2188 391 2477 730 
Q 2766 1069 2766 1631 
L 2766 1759 
L 2194 1759 
z
M 3341 1997 
L 3341 0 
L 2766 0 
L 2766 531 
Q 2569 213 2275 61 
Q 1981 -91 1556 -91 
Q 1019 -91 701 211 
Q 384 513 384 1019 
Q 384 1609 779 1909 
Q 1175 2209 1959 2209 
L 2766 2209 
L 2766 2266 
Q 2766 2663 2505 2880 
Q 2244 3097 1772 3097 
Q 1472 3097 1187 3025 
Q 903 2953 641 2809 
L 641 3341 
Q 956 3463 1253 3523 
Q 1550 3584 1831 3584 
Q 2591 3584 2966 3190 
Q 3341 2797 3341 1997 
z
" transform="scale(0.015625)"/>
       <path id="DejaVuSans-6d" d="M 3328 2828 
Q 3544 3216 3844 3400 
Q 4144 3584 4550 3584 
Q 5097 3584 5394 3201 
Q 5691 2819 5691 2113 
L 5691 0 
L 5113 0 
L 5113 2094 
Q 5113 2597 4934 2840 
Q 4756 3084 4391 3084 
Q 3944 3084 3684 2787 
Q 3425 2491 3425 1978 
L 3425 0 
L 2847 0 
L 2847 2094 
Q 2847 2600 2669 2842 
Q 2491 3084 2119 3084 
Q 1678 3084 1418 2786 
Q 1159 2488 1159 1978 
L 1159 0 
L 581 0 
L 581 3500 
L 1159 3500 
L 1159 2956 
Q 1356 3278 1631 3431 
Q 1906 3584 2284 3584 
Q 2666 3584 2933 3390 
Q 3200 3197 3328 2828 
z
" transform="scale(0.015625)"/>
      </defs>
      <use xlink:href="#DejaVuSans-68"/>
      <use xlink:href="#DejaVuSans-69" x="63.378906"/>
      <use xlink:href="#DejaVuSans-73" x="91.162109"/>
      <use xlink:href="#DejaVuSans-74" x="143.261719"/>
      <use xlink:href="#DejaVuSans-6f" x="182.470703"/>
      <use xlink:href="#DejaVuSans-67" x="243.652344"/>
      <use xlink:href="#DejaVuSans-72" x="307.128906"/>
      <use xlink:href="#DejaVuSans-61" x="348.242188"/>
      <use xlink:href="#DejaVuSans-6d" x="409.521484"/>
     </g>
    </g>
   </g>
   <g id="patch_103">
    <path d="M 44.57 317.72 
L 44.57 10.8 
" style="fill: none; stroke: #000000; stroke-width: 0.8; stroke-linejoin: miter; stroke-linecap: square"/>
   </g>
   <g id="patch_104">
    <path d="M 400.39 317.72 
L 400.39 10.8 
" style="fill: none; stroke: #000000; stroke-width: 0.8; stroke-linejoin: miter; stroke-linecap: square"/>
   </g>
   <g id="patch_105">
    <path d="M 44.57 317.72 
L 400.39 317.72 
" style="fill: none; stroke: #000000; stroke-width: 0.8; stroke-linejoin: miter; stroke-linecap: square"/>
   </g>
   <g id="patch_106">
    <path d="M 44.57 10.8 
L 400.39 10.8 
" style="fill: none; stroke: #000000; stroke-width: 0.8; stroke-linejoin: miter; stroke-linecap: square"/>
   </g>
  </g>
  <g id="axes_2">
   <g id="matplotlib.axis_3">
    <g id="ytick_8">
     <g id="line2d_15">
      <defs>
       <path id="m111d985480" d="M 0 0 
L 3.5 0 
" style="stroke: #000000; stroke-width: 0.8"/>
      </defs>
      <g>
       <use xlink:href="#m111d985480" x="400.39" y="278.72497" style="stroke: #000000; stroke-width: 0.8"/>
      </g>
     </g>
     <g id="text_16">
      <!-- 0.390 -->
      <g transform="translate(407.39 282.524189)scale(0.1 -0.1)">
       <defs>
        <path id="DejaVuSans-39" d="M 703 97 
L 703 672 
Q 941 559 1184 500 
Q 1428 441 1663 441 
Q 2288 441 2617 861 
Q 2947 1281 2994 2138 
Q 2813 1869 2534 1725 
Q 2256 1581 1919 1581 
Q 1219 1581 811 2004 
Q 403 2428 403 3163 
Q 403 3881 828 4315 
Q 1253 4750 1959 4750 
Q 2769 4750 3195 4129 
Q 3622 3509 3622 2328 
Q 3622 1225 3098 567 
Q 2575 -91 1691 -91 
Q 1453 -91 1209 -44 
Q 966 3 703 97 
z
M 1959 2075 
Q 2384 2075 2632 2365 
Q 2881 2656 2881 3163 
Q 2881 3666 2632 3958 
Q 2384 4250 1959 4250 
Q 1534 4250 1286 3958 
Q 1038 3666 1038 3163 
Q 1038 2656 1286 2365 
Q 1534 2075 1959 2075 
z
" transform="scale(0.015625)"/>
       </defs>
       <use xlink:href="#DejaVuSans-30"/>
       <use xlink:href="#DejaVuSans-2e" x="63.623047"/>
       <use xlink:href="#DejaVuSans-33" x="95.410156"/>
       <use xlink:href="#DejaVuSans-39" x="159.033203"/>
       <use xlink:href="#DejaVuSans-30" x="222.65625"/>
      </g>
     </g>
    </g>
    <g id="ytick_9">
     <g id="line2d_16">
      <g>
       <use xlink:href="#m111d985480" x="400.39" y="221.917506" style="stroke: #000000; stroke-width: 0.8"/>
      </g>
     </g>
     <g id="text_17">
      <!-- 0.392 -->
      <g transform="translate(407.39 225.716725)scale(0.1 -0.1)">
       <use xlink:href="#DejaVuSans-30"/>
       <use xlink:href="#DejaVuSans-2e" x="63.623047"/>
       <use xlink:href="#DejaVuSans-33" x="95.410156"/>
       <use xlink:href="#DejaVuSans-39" x="159.033203"/>
       <use xlink:href="#DejaVuSans-32" x="222.65625"/>
      </g>
     </g>
    </g>
    <g id="ytick_10">
     <g id="line2d_17">
      <g>
       <use xlink:href="#m111d985480" x="400.39" y="165.110042" style="stroke: #000000; stroke-width: 0.8"/>
      </g>
     </g>
     <g id="text_18">
      <!-- 0.394 -->
      <g transform="translate(407.39 168.909261)scale(0.1 -0.1)">
       <defs>
        <path id="DejaVuSans-34" d="M 2419 4116 
L 825 1625 
L 2419 1625 
L 2419 4116 
z
M 2253 4666 
L 3047 4666 
L 3047 1625 
L 3713 1625 
L 3713 1100 
L 3047 1100 
L 3047 0 
L 2419 0 
L 2419 1100 
L 313 1100 
L 313 1709 
L 2253 4666 
z
" transform="scale(0.015625)"/>
       </defs>
       <use xlink:href="#DejaVuSans-30"/>
       <use xlink:href="#DejaVuSans-2e" x="63.623047"/>
       <use xlink:href="#DejaVuSans-33" x="95.410156"/>
       <use xlink:href="#DejaVuSans-39" x="159.033203"/>
       <use xlink:href="#DejaVuSans-34" x="222.65625"/>
      </g>
     </g>
    </g>
    <g id="ytick_11">
     <g id="line2d_18">
      <g>
       <use xlink:href="#m111d985480" x="400.39" y="108.302579" style="stroke: #000000; stroke-width: 0.8"/>
      </g>
     </g>
     <g id="text_19">
      <!-- 0.396 -->
      <g transform="translate(407.39 112.101797)scale(0.1 -0.1)">
       <defs>
        <path id="DejaVuSans-36" d="M 2113 2584 
Q 1688 2584 1439 2293 
Q 1191 2003 1191 1497 
Q 1191 994 1439 701 
Q 1688 409 2113 409 
Q 2538 409 2786 701 
Q 3034 994 3034 1497 
Q 3034 2003 2786 2293 
Q 2538 2584 2113 2584 
z
M 3366 4563 
L 3366 3988 
Q 3128 4100 2886 4159 
Q 2644 4219 2406 4219 
Q 1781 4219 1451 3797 
Q 1122 3375 1075 2522 
Q 1259 2794 1537 2939 
Q 1816 3084 2150 3084 
Q 2853 3084 3261 2657 
Q 3669 2231 3669 1497 
Q 3669 778 3244 343 
Q 2819 -91 2113 -91 
Q 1303 -91 875 529 
Q 447 1150 447 2328 
Q 447 3434 972 4092 
Q 1497 4750 2381 4750 
Q 2619 4750 2861 4703 
Q 3103 4656 3366 4563 
z
" transform="scale(0.015625)"/>
       </defs>
       <use xlink:href="#DejaVuSans-30"/>
       <use xlink:href="#DejaVuSans-2e" x="63.623047"/>
       <use xlink:href="#DejaVuSans-33" x="95.410156"/>
       <use xlink:href="#DejaVuSans-39" x="159.033203"/>
       <use xlink:href="#DejaVuSans-36" x="222.65625"/>
      </g>
     </g>
    </g>
    <g id="ytick_12">
     <g id="line2d_19">
      <g>
       <use xlink:href="#m111d985480" x="400.39" y="51.495115" style="stroke: #000000; stroke-width: 0.8"/>
      </g>
     </g>
     <g id="text_20">
      <!-- 0.398 -->
      <g transform="translate(407.39 55.294334)scale(0.1 -0.1)">
       <defs>
        <path id="DejaVuSans-38" d="M 2034 2216 
Q 1584 2216 1326 1975 
Q 1069 1734 1069 1313 
Q 1069 891 1326 650 
Q 1584 409 2034 409 
Q 2484 409 2743 651 
Q 3003 894 3003 1313 
Q 3003 1734 2745 1975 
Q 2488 2216 2034 2216 
z
M 1403 2484 
Q 997 2584 770 2862 
Q 544 3141 544 3541 
Q 544 4100 942 4425 
Q 1341 4750 2034 4750 
Q 2731 4750 3128 4425 
Q 3525 4100 3525 3541 
Q 3525 3141 3298 2862 
Q 3072 2584 2669 2484 
Q 3125 2378 3379 2068 
Q 3634 1759 3634 1313 
Q 3634 634 3220 271 
Q 2806 -91 2034 -91 
Q 1263 -91 848 271 
Q 434 634 434 1313 
Q 434 1759 690 2068 
Q 947 2378 1403 2484 
z
M 1172 3481 
Q 1172 3119 1398 2916 
Q 1625 2713 2034 2713 
Q 2441 2713 2670 2916 
Q 2900 3119 2900 3481 
Q 2900 3844 2670 4047 
Q 2441 4250 2034 4250 
Q 1625 4250 1398 4047 
Q 1172 3844 1172 3481 
z
" transform="scale(0.015625)"/>
       </defs>
       <use xlink:href="#DejaVuSans-30"/>
       <use xlink:href="#DejaVuSans-2e" x="63.623047"/>
       <use xlink:href="#DejaVuSans-33" x="95.410156"/>
       <use xlink:href="#DejaVuSans-39" x="159.033203"/>
       <use xlink:href="#DejaVuSans-38" x="222.65625"/>
      </g>
     </g>
    </g>
    <g id="text_21">
     <!-- probability density function -->
     <g transform="translate(447.616563 232.870937)rotate(-90)scale(0.1 -0.1)">
      <defs>
       <path id="DejaVuSans-70" d="M 1159 525 
L 1159 -1331 
L 581 -1331 
L 581 3500 
L 1159 3500 
L 1159 2969 
Q 1341 3281 1617 3432 
Q 1894 3584 2278 3584 
Q 2916 3584 3314 3078 
Q 3713 2572 3713 1747 
Q 3713 922 3314 415 
Q 2916 -91 2278 -91 
Q 1894 -91 1617 61 
Q 1341 213 1159 525 
z
M 3116 1747 
Q 3116 2381 2855 2742 
Q 2594 3103 2138 3103 
Q 1681 3103 1420 2742 
Q 1159 2381 1159 1747 
Q 1159 1113 1420 752 
Q 1681 391 2138 391 
Q 2594 391 2855 752 
Q 3116 1113 3116 1747 
z
" transform="scale(0.015625)"/>
       <path id="DejaVuSans-62" d="M 3116 1747 
Q 3116 2381 2855 2742 
Q 2594 3103 2138 3103 
Q 1681 3103 1420 2742 
Q 1159 2381 1159 1747 
Q 1159 1113 1420 752 
Q 1681 391 2138 391 
Q 2594 391 2855 752 
Q 3116 1113 3116 1747 
z
M 1159 2969 
Q 1341 3281 1617 3432 
Q 1894 3584 2278 3584 
Q 2916 3584 3314 3078 
Q 3713 2572 3713 1747 
Q 3713 922 3314 415 
Q 2916 -91 2278 -91 
Q 1894 -91 1617 61 
Q 1341 213 1159 525 
L 1159 0 
L 581 0 
L 581 4863 
L 1159 4863 
L 1159 2969 
z
" transform="scale(0.015625)"/>
       <path id="DejaVuSans-6c" d="M 603 4863 
L 1178 4863 
L 1178 0 
L 603 0 
L 603 4863 
z
" transform="scale(0.015625)"/>
       <path id="DejaVuSans-79" d="M 2059 -325 
Q 1816 -950 1584 -1140 
Q 1353 -1331 966 -1331 
L 506 -1331 
L 506 -850 
L 844 -850 
Q 1081 -850 1212 -737 
Q 1344 -625 1503 -206 
L 1606 56 
L 191 3500 
L 800 3500 
L 1894 763 
L 2988 3500 
L 3597 3500 
L 2059 -325 
z
" transform="scale(0.015625)"/>
       <path id="DejaVuSans-20" transform="scale(0.015625)"/>
       <path id="DejaVuSans-64" d="M 2906 2969 
L 2906 4863 
L 3481 4863 
L 3481 0 
L 2906 0 
L 2906 525 
Q 2725 213 2448 61 
Q 2172 -91 1784 -91 
Q 1150 -91 751 415 
Q 353 922 353 1747 
Q 353 2572 751 3078 
Q 1150 3584 1784 3584 
Q 2172 3584 2448 3432 
Q 2725 3281 2906 2969 
z
M 947 1747 
Q 947 1113 1208 752 
Q 1469 391 1925 391 
Q 2381 391 2643 752 
Q 2906 1113 2906 1747 
Q 2906 2381 2643 2742 
Q 2381 3103 1925 3103 
Q 1469 3103 1208 2742 
Q 947 2381 947 1747 
z
" transform="scale(0.015625)"/>
       <path id="DejaVuSans-65" d="M 3597 1894 
L 3597 1613 
L 953 1613 
Q 991 1019 1311 708 
Q 1631 397 2203 397 
Q 2534 397 2845 478 
Q 3156 559 3463 722 
L 3463 178 
Q 3153 47 2828 -22 
Q 2503 -91 2169 -91 
Q 1331 -91 842 396 
Q 353 884 353 1716 
Q 353 2575 817 3079 
Q 1281 3584 2069 3584 
Q 2775 3584 3186 3129 
Q 3597 2675 3597 1894 
z
M 3022 2063 
Q 3016 2534 2758 2815 
Q 2500 3097 2075 3097 
Q 1594 3097 1305 2825 
Q 1016 2553 972 2059 
L 3022 2063 
z
" transform="scale(0.015625)"/>
       <path id="DejaVuSans-6e" d="M 3513 2113 
L 3513 0 
L 2938 0 
L 2938 2094 
Q 2938 2591 2744 2837 
Q 2550 3084 2163 3084 
Q 1697 3084 1428 2787 
Q 1159 2491 1159 1978 
L 1159 0 
L 581 0 
L 581 3500 
L 1159 3500 
L 1159 2956 
Q 1366 3272 1645 3428 
Q 1925 3584 2291 3584 
Q 2894 3584 3203 3211 
Q 3513 2838 3513 2113 
z
" transform="scale(0.015625)"/>
       <path id="DejaVuSans-66" d="M 2375 4863 
L 2375 4384 
L 1825 4384 
Q 1516 4384 1395 4259 
Q 1275 4134 1275 3809 
L 1275 3500 
L 2222 3500 
L 2222 3053 
L 1275 3053 
L 1275 0 
L 697 0 
L 697 3053 
L 147 3053 
L 147 3500 
L 697 3500 
L 697 3744 
Q 697 4328 969 4595 
Q 1241 4863 1831 4863 
L 2375 4863 
z
" transform="scale(0.015625)"/>
       <path id="DejaVuSans-75" d="M 544 1381 
L 544 3500 
L 1119 3500 
L 1119 1403 
Q 1119 906 1312 657 
Q 1506 409 1894 409 
Q 2359 409 2629 706 
Q 2900 1003 2900 1516 
L 2900 3500 
L 3475 3500 
L 3475 0 
L 2900 0 
L 2900 538 
Q 2691 219 2414 64 
Q 2138 -91 1772 -91 
Q 1169 -91 856 284 
Q 544 659 544 1381 
z
M 1991 3584 
L 1991 3584 
z
" transform="scale(0.015625)"/>
       <path id="DejaVuSans-63" d="M 3122 3366 
L 3122 2828 
Q 2878 2963 2633 3030 
Q 2388 3097 2138 3097 
Q 1578 3097 1268 2742 
Q 959 2388 959 1747 
Q 959 1106 1268 751 
Q 1578 397 2138 397 
Q 2388 397 2633 464 
Q 2878 531 3122 666 
L 3122 134 
Q 2881 22 2623 -34 
Q 2366 -91 2075 -91 
Q 1284 -91 818 406 
Q 353 903 353 1747 
Q 353 2603 823 3093 
Q 1294 3584 2113 3584 
Q 2378 3584 2631 3529 
Q 2884 3475 3122 3366 
z
" transform="scale(0.015625)"/>
      </defs>
      <use xlink:href="#DejaVuSans-70"/>
      <use xlink:href="#DejaVuSans-72" x="63.476562"/>
      <use xlink:href="#DejaVuSans-6f" x="102.339844"/>
      <use xlink:href="#DejaVuSans-62" x="163.521484"/>
      <use xlink:href="#DejaVuSans-61" x="226.998047"/>
      <use xlink:href="#DejaVuSans-62" x="288.277344"/>
      <use xlink:href="#DejaVuSans-69" x="351.753906"/>
      <use xlink:href="#DejaVuSans-6c" x="379.537109"/>
      <use xlink:href="#DejaVuSans-69" x="407.320312"/>
      <use xlink:href="#DejaVuSans-74" x="435.103516"/>
      <use xlink:href="#DejaVuSans-79" x="474.3125"/>
      <use xlink:href="#DejaVuSans-20" x="533.492188"/>
      <use xlink:href="#DejaVuSans-64" x="565.279297"/>
      <use xlink:href="#DejaVuSans-65" x="628.755859"/>
      <use xlink:href="#DejaVuSans-6e" x="690.279297"/>
      <use xlink:href="#DejaVuSans-73" x="753.658203"/>
      <use xlink:href="#DejaVuSans-69" x="805.757812"/>
      <use xlink:href="#DejaVuSans-74" x="833.541016"/>
      <use xlink:href="#DejaVuSans-79" x="872.75"/>
      <use xlink:href="#DejaVuSans-20" x="931.929688"/>
      <use xlink:href="#DejaVuSans-66" x="963.716797"/>
      <use xlink:href="#DejaVuSans-75" x="998.921875"/>
      <use xlink:href="#DejaVuSans-6e" x="1062.300781"/>
      <use xlink:href="#DejaVuSans-63" x="1125.679688"/>
      <use xlink:href="#DejaVuSans-74" x="1180.660156"/>
      <use xlink:href="#DejaVuSans-69" x="1219.869141"/>
      <use xlink:href="#DejaVuSans-6f" x="1247.652344"/>
      <use xlink:href="#DejaVuSans-6e" x="1308.833984"/>
     </g>
    </g>
   </g>
   <g id="line2d_20">
    <path d="M 101.177727 298.458929 
L 104.412455 284.152306 
L 107.647182 270.216501 
L 110.881909 256.65296 
L 114.116636 243.463092 
L 117.351364 230.648269 
L 120.586091 218.209822 
L 123.820818 206.149047 
L 127.055545 194.467201 
L 130.290273 183.165501 
L 133.525 172.245127 
L 136.759727 161.707218 
L 139.994455 151.552876 
L 143.229182 141.783161 
L 146.463909 132.399096 
L 149.698636 123.401663 
L 152.933364 114.791804 
L 156.168091 106.570421 
L 159.402818 98.738376 
L 162.637545 91.296489 
L 165.872273 84.245543 
L 169.107 77.586276 
L 172.341727 71.319389 
L 175.576455 65.445539 
L 178.811182 59.965343 
L 182.045909 54.879379 
L 185.280636 50.18818 
L 188.515364 45.89224 
L 191.750091 41.992011 
L 194.984818 38.487903 
L 198.219545 35.380286 
L 201.454273 32.669486 
L 204.689 30.355789 
L 207.923727 28.439438 
L 211.158455 26.920636 
L 214.393182 25.799542 
L 217.627909 25.076274 
L 220.862636 24.750909 
L 224.097364 24.823481 
L 227.332091 25.293982 
L 230.566818 26.162363 
L 233.801545 27.428532 
L 237.036273 29.092356 
L 240.271 31.153659 
L 243.505727 33.612225 
L 246.740455 36.467794 
L 249.975182 39.720067 
L 253.209909 43.3687 
L 256.444636 47.413309 
L 259.679364 51.853469 
L 262.914091 56.688713 
L 266.148818 61.918533 
L 269.383545 67.542377 
L 272.618273 73.559657 
L 275.853 79.969738 
L 279.087727 86.771948 
L 282.322455 93.965573 
L 285.557182 101.549857 
L 288.791909 109.524006 
L 292.026636 117.887183 
L 295.261364 126.638511 
L 298.496091 135.777075 
L 301.730818 145.301916 
L 304.965545 155.212039 
L 308.200273 165.506408 
L 311.435 176.183946 
L 314.669727 187.243538 
L 317.904455 198.68403 
L 321.139182 210.504229 
L 324.373909 222.702902 
L 327.608636 235.27878 
L 330.843364 248.230552 
L 334.078091 261.556873 
L 337.312818 275.256358 
L 340.547545 289.327584 
L 343.782273 303.769091 
" clip-path="url(#paf53dcc6e0)" style="fill: none; stroke: #008000; stroke-width: 1.5; stroke-linecap: square"/>
   </g>
   <g id="patch_107">
    <path d="M 44.57 317.72 
L 44.57 10.8 
" style="fill: none; stroke: #000000; stroke-width: 0.8; stroke-linejoin: miter; stroke-linecap: square"/>
   </g>
   <g id="patch_108">
    <path d="M 400.39 317.72 
L 400.39 10.8 
" style="fill: none; stroke: #000000; stroke-width: 0.8; stroke-linejoin: miter; stroke-linecap: square"/>
   </g>
   <g id="patch_109">
    <path d="M 44.57 317.72 
L 400.39 317.72 
" style="fill: none; stroke: #000000; stroke-width: 0.8; stroke-linejoin: miter; stroke-linecap: square"/>
   </g>
   <g id="patch_110">
    <path d="M 44.57 10.8 
L 400.39 10.8 
" style="fill: none; stroke: #000000; stroke-width: 0.8; stroke-linejoin: miter; stroke-linecap: square"/>
   </g>
   <g id="legend_1">
    <g id="patch_111">
     <path d="M 310.697813 48.15625 
L 393.39 48.15625 
Q 395.39 48.15625 395.39 46.15625 
L 395.39 17.8 
Q 395.39 15.8 393.39 15.8 
L 310.697813 15.8 
Q 308.697813 15.8 308.697813 17.8 
L 308.697813 46.15625 
Q 308.697813 48.15625 310.697813 48.15625 
z
" style="fill: #ffffff; opacity: 0.8; stroke: #cccccc; stroke-linejoin: miter"/>
    </g>
    <g id="patch_112">
     <path d="M 312.697813 27.398438 
L 332.697813 27.398438 
L 332.697813 20.398438 
L 312.697813 20.398438 
z
" style="fill: #1f77b4"/>
    </g>
    <g id="text_22">
     <!-- histogram -->
     <g transform="translate(340.697813 27.398438)scale(0.1 -0.1)">
      <use xlink:href="#DejaVuSans-68"/>
      <use xlink:href="#DejaVuSans-69" x="63.378906"/>
      <use xlink:href="#DejaVuSans-73" x="91.162109"/>
      <use xlink:href="#DejaVuSans-74" x="143.261719"/>
      <use xlink:href="#DejaVuSans-6f" x="182.470703"/>
      <use xlink:href="#DejaVuSans-67" x="243.652344"/>
      <use xlink:href="#DejaVuSans-72" x="307.128906"/>
      <use xlink:href="#DejaVuSans-61" x="348.242188"/>
      <use xlink:href="#DejaVuSans-6d" x="409.521484"/>
     </g>
    </g>
    <g id="line2d_21">
     <path d="M 312.697813 38.576563 
L 322.697813 38.576563 
L 332.697813 38.576563 
" style="fill: none; stroke: #008000; stroke-width: 1.5; stroke-linecap: square"/>
    </g>
    <g id="text_23">
     <!-- pdf -->
     <g transform="translate(340.697813 42.076563)scale(0.1 -0.1)">
      <use xlink:href="#DejaVuSans-70"/>
      <use xlink:href="#DejaVuSans-64" x="63.476562"/>
      <use xlink:href="#DejaVuSans-66" x="126.953125"/>
     </g>
    </g>
   </g>
  </g>
 </g>
 <defs>
  <clipPath id="paf53dcc6e0">
   <rect x="44.57" y="10.8" width="355.82" height="306.92"/>
  </clipPath>
 </defs>
</svg>
